<?xml version="1.0" encoding="UTF-8" standalone="no"?>
<!DOCTYPE svg PUBLIC "-//W3C//DTD SVG 1.1//EN" "http://www.w3.org/Graphics/SVG/1.1/DTD/svg11.dtd">
<svg width="100%" height="100%" viewBox="0 0 1000 1000" version="1.1" xmlns="http://www.w3.org/2000/svg" xmlns:xlink="http://www.w3.org/1999/xlink" xml:space="preserve" xmlns:serif="http://www.serif.com/" style="fill-rule:evenodd;clip-rule:evenodd;stroke-linejoin:round;stroke-miterlimit:1.5;">
    <g id="Bag-101_1000" transform="matrix(1.532189,0,0,1.532189,-240.940958,-182.717764)">
        <g transform="matrix(0.988426,0,0,0.960843,2.961227,10.608182)">
            <path d="M774.25,469.139L774.25,678.17C774.25,697.715 758.825,713.583 739.825,713.583L232.675,713.583C213.675,713.583 198.25,697.715 198.25,678.17L198.25,469.066C224.105,474.761 249.96,479.713 275.814,483.911L275.814,545.398C275.814,550.912 280.166,555.389 285.527,555.389L347.039,555.389C352.399,555.389 356.751,550.912 356.751,545.398L356.751,494.583C442.634,503.275 528.517,503.553 614.4,495.083L614.4,548.173C614.4,553.687 618.752,558.164 624.112,558.164L685.624,558.164C690.985,558.164 695.337,553.687 695.337,548.173L695.337,484.502C721.641,480.215 747.946,475.097 774.25,469.139Z" style="fill:none;stroke:black;stroke-width:8.03px;"/>
        </g>
        <g transform="matrix(1,0,0,1,-5.333333,0)">
            <path d="M546.25,620.917C546.25,633.795 535.795,644.25 522.917,644.25L449.583,644.25C436.705,644.25 426.25,633.795 426.25,620.917C426.25,608.039 436.705,597.583 449.583,597.583L522.917,597.583C535.795,597.583 546.25,608.039 546.25,620.917Z" style="fill:none;stroke:black;stroke-width:7.83px;"/>
        </g>
        <path d="M438.25,421.583L528.917,421.583" style="fill:none;stroke:black;stroke-width:7.83px;stroke-linecap:round;"/>
        <g transform="matrix(1.394737,0,0,1.295775,-190.22149,-95.660792)">
            <path d="M407.583,282.902L407.583,235.61C407.583,229.34 412.312,224.25 418.137,224.25L549.029,224.25C554.854,224.25 559.583,229.34 559.583,235.61L559.583,282.902L407.583,282.902Z" style="fill:none;stroke:black;stroke-width:5.82px;stroke-linecap:round;"/>
        </g>
        <path d="M198.917,461.307C195.263,460.525 191.61,459.728 187.957,458.917C179.656,458.917 172.917,452.177 172.917,443.877L172.917,285.957C172.917,277.656 179.656,270.917 187.957,270.917L779.21,270.917C787.511,270.917 794.25,277.656 794.25,285.957L794.25,443.877C794.25,452.177 787.511,458.917 779.21,458.917C775.557,459.753 771.903,460.573 768.25,461.378C742.25,467.102 716.25,472.019 690.25,476.139L690.25,444.517C690.25,439.218 685.948,434.917 680.65,434.917L619.85,434.917C614.552,434.917 610.25,439.218 610.25,444.517L610.25,486.306C525.361,494.443 440.472,494.176 355.583,485.825L355.583,441.85C355.583,436.552 351.282,432.25 345.983,432.25L285.183,432.25C279.885,432.25 275.583,436.552 275.583,441.85L275.583,475.571C250.028,471.537 224.472,466.779 198.917,461.307Z" style="fill:none;stroke:black;stroke-width:7.83px;stroke-linecap:round;"/>
        <path d="M610.25,537.317L610.25,444.517C610.25,439.218 614.552,434.917 619.85,434.917L680.65,434.917C685.948,434.917 690.25,439.218 690.25,444.517L690.25,537.317C690.25,542.615 685.948,546.917 680.65,546.917L619.85,546.917C614.552,546.917 610.25,542.615 610.25,537.317Z" style="fill:none;stroke:black;stroke-width:7.83px;stroke-linecap:round;"/>
        <path d="M275.583,534.65L275.583,441.85C275.583,436.552 279.885,432.25 285.183,432.25L345.983,432.25C351.282,432.25 355.583,436.552 355.583,441.85L355.583,534.65C355.583,539.948 351.282,544.25 345.983,544.25L285.183,544.25C279.885,544.25 275.583,539.948 275.583,534.65Z" style="fill:none;stroke:black;stroke-width:7.83px;stroke-linecap:round;"/>
    </g>
</svg>
