<?xml version="1.0" encoding="utf-8"?>
<!-- Generator: Adobe Illustrator 27.9.5, SVG Export Plug-In . SVG Version: 9.03 Build 54986)  -->
<svg version="1.1" id="Layer_1" xmlns="http://www.w3.org/2000/svg" xmlns:xlink="http://www.w3.org/1999/xlink" x="0px" y="0px"
	 viewBox="0 0 2000 2000" enable-background="new 0 0 2000 2000" xml:space="preserve">
<path d="M1683.297,768.742c-6.714-2.48-14.059-4.193-21.188-4.463c-62.652-2.37-124.081,6.527-184.834,21.034
	c-3.861,0.922-8.256,1.946-11.035,4.444c-3.168,2.847-6.766,7.544-6.502,11.169c0.225,3.096,5.281,6.48,8.895,8.487
	c2.883,1.601,6.803,1.379,10.277,1.866c16.371,2.295,33.022,3.379,49.047,7.137c18.377,4.31,22.986,16.346,12.701,32.294
	c-19.992,31-50.157,45.683-85.797,50.486c-2.187,0.295-5.685-0.403-6.728-1.913c-3.989-5.776-9.24-5.982-14.477-3.478
	c-6.152,2.942-6.787,8.827-5.527,14.951c1.414,6.876,2.371,13.906,4.499,20.558c2.255,7.05-0.325,10.133-6.533,13.207
	c-49.225,24.373-97.973,49.724-147.441,73.588c-144.029,69.481-291.145,131.436-443.63,180.175
	c-8.882,2.839-16.117,1.435-23.516-2.851c-8.112-4.698-9.591-9.427-3.381-16.294c7.019-7.76,15.184-14.52,23.12-21.405
	c6.814-5.912,14.514-10.872,20.908-17.181c8.939-8.82,6.429-18.987-5.678-22.33c-9.105-2.514-18.695-3.494-28.139-4.515
	c-21.2-2.291-42.538-3.861-62.584-11.932c-18.501-7.449-34.074-18.369-41.043-38.19c-2.367-6.732-4.075-13.778-0.36-21.518
	c1.883,1.792,3.429,3.017,4.679,4.493c8.587,10.143,16.382,21.08,25.803,30.37c23.044,22.724,50.715,33.511,83.469,29.465
	c31.016-3.831,52.592-23.914,57.603-54.698c1.524-9.362,1.596-18.983,1.992-28.499c0.447-10.76,5.821-18.222,15.432-22.065
	c9.266-3.705,18.786-7.682,28.547-9.084c45.662-6.561,91.44-12.322,137.189-18.274c32.584-4.239,65.217-8.274,96.693-18.244
	c15.592-4.939,30.857-10.864,43.056-22.342c15.269-14.366,14.039-32.257-3.686-43.477c-7.704-4.877-16.583-8.471-25.409-10.901
	c-29.796-8.204-60.531-9.661-91.115-8.716c-59.698,1.845-119.348,5.203-179.024,7.8c-37.87,1.648-75.774,3.492-113.483-2.3
	c-16.667-2.56-33.144-6.099-47.289-16.058c-15.52-10.926-17.978-24.662-5.801-39.096c7.029-8.331,15.341-16.142,24.467-22.029
	c20.213-13.038,41.027-25.219,62.11-36.817c25.714-14.145,48.929-31.023,69.328-52.401c9.99-10.468,23.499-17.594,35.511-26.096
	c1.45-1.026,3.502-1.201,5.432-1.821c3.546,35.691,24.206,59.167,51.897,77.787c5.596,3.763,11.652,6.935,17.758,9.827
	c28.176,13.345,58.336,19.445,89.084,19.02c35.807-0.495,71.565-4.167,107.357-6.26c19.268-1.127,38.557-2.453,57.844-2.575
	c24.829-0.157,46.361,9.267,65.501,24.848c8.548,6.959,17.445,13.553,26.617,19.663c8.933,5.95,18.974,8.594,29.918,8.56
	c10.482-0.033,14.712-8.278,19.859-14.657c1.467-1.819-1.612-7.715-3.177-11.506c-11.432-27.703-28.019-52.276-48.396-73.926
	c-107.858-114.598-239.786-157.083-393.574-125.654C787.586,641.75,656.802,794.784,646.108,970.833
	c-5.588,91.988,17.59,176.44,68.818,253.125c1.446,2.165,2.829,4.372,4.52,6.991c-2.603,0.796-4.231,1.444-5.92,1.788
	c-48.63,9.894-97.022,21.245-145.962,29.247c-61.028,9.978-122.681,14.878-184.503,8c-17.754-1.975-35.421-6.538-52.535-11.829
	c-11.839-3.66-12.969-10.041-4.039-18.859c9.402-9.284,19.646-18.048,30.661-25.312c54.822-36.151,113.334-65.403,173.682-91.083
	c2.811-1.196,5.82-1.929,10.719-3.522c-3.174,4.119-5.061,6.424-6.793,8.84c-11.241,15.677-23.954,30.535-33.315,47.267
	c-14.328,25.608-5.11,42.202,23.982,45.589c35.518,4.135,70.553-1.823,105.59-6.55c2.134-0.288,4.071-2.04,6.1-3.111
	c-0.074-0.77-0.147-1.54-0.221-2.31c-3.186-0.728-6.376-2.095-9.558-2.078c-18.551,0.099-37.1,0.712-55.651,0.78
	c-15.769,0.057-31.636,0.611-47.284-0.889c-15.802-1.514-19.689-8.842-11.814-22.423c7.757-13.379,17.495-25.63,26.647-38.17
	c6.057-8.299,12.916-16.021,18.823-24.417c3.207-4.559,5.002-10.103,1.329-15.506c-3.659-5.382-9.363-5.524-14.917-4.625
	c-4.669,0.755-9.361,1.998-13.744,3.765c-12.553,5.062-25.151,10.081-37.38,15.861c-52.656,24.89-104.729,50.938-152.556,84.476
	c-10.576,7.417-20.615,16.22-28.982,26.022c-12.804,14.999-9.342,30.978,8.256,39.743c9.969,4.966,20.949,8.58,31.88,10.825
	c53.446,10.977,107.375,8.935,161.228,4.01c71.351-6.524,141.439-20.346,210.722-38.368c5.221-1.358,8.338-0.515,12.047,3.851
	c95.255,112.138,216.325,163.119,362.914,149.519c94.811-8.796,176.964-47.922,244.002-115.49
	c91.142-91.862,129.238-203.315,116.184-332.077c-0.589-5.812,1.113-8.232,5.936-10.946c46.345-26.078,92.994-51.669,138.557-79.06
	c25.51-15.335,49.374-33.477,73.459-51.068c6.289-4.593,11.568-11.285,15.652-18.019
	C1699.342,783.772,1695.432,773.225,1683.297,768.742z M735.998,1219.8c-34.376-48.132-56.382-101.389-66.341-159.751
	c-28.111-164.744,56.846-331.169,207.24-405.503c161.979-80.06,353.892-41.074,473.809,96.598
	c14.152,16.247,27.084,33.601,39.791,51.019c2.379,3.261,1.997,9.557,0.797,13.87c-0.438,1.575-7.411,2.857-10.615,1.826
	c-7.038-2.266-14.083-5.338-20.193-9.462c-8.708-5.877-16.588-12.982-24.809-19.579c-21.303-17.094-45.668-26.916-72.904-26.01
	c-32.799,1.091-65.549,4.055-98.277,6.727c-42.437,3.464-84.74,5.239-126.226-7.076c-26.362-7.826-49.202-21.334-66.133-43.507
	c-8.495-11.125-14.732-23.255-14.81-37.843c-0.03-5.622,1.819-8.972,7.576-10.042c26.573-4.941,53.103-10.122,79.708-14.882
	c5.614-1.005,10.868-1.956,11.106-8.709c0.25-7.101-5.298-8.259-10.825-8.778c-22.002-2.066-44.022-4.258-65.958,0.506
	c-12.592,2.734-23.615,8.101-31.625,18.79c-1.663,2.219-4.607,3.824-7.289,4.877c-22.349,8.769-41.792,21.638-57.676,39.782
	c-14.228,16.252-31.559,28.529-50.255,39.115c-22.478,12.727-45.218,25.075-66.995,38.924c-11.72,7.454-22.862,16.619-32.166,26.909
	c-21.637,23.929-16.905,50.971,10.869,67.548c20.99,12.528,44.531,17.838,68.372,18.399c43.354,1.019,86.771,0.352,130.141-0.564
	c58.194-1.23,116.361-4.136,174.555-4.68c19.591-0.183,39.305,4.188,58.802,7.437c6.708,1.118,13.339,4.468,19.278,8.016
	c8.789,5.249,9.378,11.005,1.309,17.053c-7.327,5.491-15.549,10.183-24.013,13.687c-24.52,10.152-50.575,14.508-76.694,17.891
	c-49.245,6.378-98.632,11.683-147.819,18.461c-15.762,2.172-31.385,6.663-46.524,11.728c-20.806,6.961-31.61,22.028-31.284,44.491
	c0.084,5.759-0.301,11.546-0.824,17.288c-2.448,26.911-19.225,43.152-46.304,45.384c-27.582,2.274-50.089-8.068-68.642-27.691
	c-7.566-8.002-14.05-17.019-21.169-25.453c-6.31-7.475-13.381-15.065-24.195-11.171c-10.994,3.959-12.26,14.435-12.185,24.499
	c0.157,21.119,10.23,37.372,26.144,50.318c19.356,15.746,42.461,22.151,66.562,25.582c13.157,1.873,26.414,3.037,39.619,4.581
	c2.628,0.307,5.222,0.893,9.672,1.673c-7.296,5.623-13.328,9.981-19.027,14.74c-6.923,5.781-14.153,11.359-20.209,17.978
	c-14.571,15.928-14.109,27.828,1.782,43.934c-19.658,5.569-38.385,11.105-57.298,15.91
	C741.726,1225.172,737.7,1222.182,735.998,1219.8z M1414.316,1136.085c-34.575,89.902-94.605,157.877-179.781,202.673
	c-172.59,90.771-374.28,35.958-481.884-97.736c25.349-7.462,49.97-15.145,74.884-21.714c5.656-1.491,12.336,0.828,18.536,1.486
	c37.952,4.028,75.715,1.506,113.33-3.752c85.115-11.896,166.944-35.526,246.75-67.342c32.253-12.858,66.027-22.078,99.487-31.628
	c10.801-3.083,22.864-3.012,34.25-2.433c12.5,0.635,17.356,8.902,14.402,21.042c-3.643,14.966-14.039,23.729-27.903,27.947
	c-18.922,5.758-38.396,9.703-57.304,15.501c-29.434,9.025-58.774,18.442-87.759,28.797c-9.225,3.296-17.903,9.236-25.589,15.492
	c-14.823,12.064-15,26.789-1.266,40.025c6.287,6.058,13.21,11.456,20.586,17.79c-15.452,12.139-35.999,13.115-50.531,25.031
	c0.167,0.94,0.335,1.88,0.502,2.821c3.217,0.735,6.69,2.645,9.606,2.007c14.609-3.198,29.685-5.541,43.435-11.071
	c18.107-7.283,19.558-21.938,5.052-35.257c-5.356-4.917-11.282-9.223-16.544-14.232c-5.643-5.371-5.794-9.008,0.532-13.585
	c7.459-5.397,15.454-10.347,23.833-14.125c33.083-14.919,68.322-22.994,103.346-31.757c14.079-3.522,28.26-7.115,41.775-12.294
	c20.147-7.72,33.295-22.349,35.979-44.394c2.394-19.664-7.762-32.886-27.219-36.802c-19.584-3.941-38.795-0.397-57.084,5.68
	c-46.357,15.405-92.401,31.777-138.379,48.293c-81.64,29.325-165.349,48.769-252.12,53.927c-8.705,0.517-17.468,0.069-26.484-0.683
	c195.3-66.095,381.94-151.871,565.782-247.489C1443.475,1020.008,1436.253,1079.042,1414.316,1136.085z M1668.674,797.898
	c-20.347,15.036-40.131,31.116-61.764,44.07c-48.165,28.842-97.312,56.044-146.068,83.899c-1.489,0.851-3.075,1.531-5.321,2.64
	c-1.406-6.616-2.681-12.616-3.709-17.455c14.179-3.313,28.291-5.428,41.568-9.98c21.702-7.441,40.476-19.905,54.509-38.5
	c20.719-27.456,12.229-51.33-21.206-59.338c-10.137-2.428-20.543-3.728-32.326-5.81c50.677-15.701,166.664-23.277,185.131-11.518
	C1675.835,790.037,1672.869,794.798,1668.674,797.898z"/>
<path d="M561.332,402.31c-18.878,2.734-38.069,5.512-57.26,8.29c0.08,0.729,0.16,1.46,0.24,2.189
	c10.253-0.482,20.506-0.954,30.758-1.452c5.2-0.252,10.418-0.932,15.59-0.668c2.606,0.133,5.623,1.389,7.562,3.131
	c2.508,2.255,1.067,5.511-2.273,5.593c-19.736,0.489-39.475,0.917-59.215,1.185c-4.065,0.055-9.071,0.2-10.169-4.945
	c-1.069-5.012,3.302-7.739,7.094-8.815c10.801-3.064,21.743-5.799,32.789-7.778c10.222-1.831,20.634-2.681,30.993-3.626
	c4.207-0.384,5.572-2.111,5.94-6.274c2.389-26.99,4.977-53.963,7.701-80.921c0.739-7.31,1.894-14.609,3.424-21.793
	c0.588-2.761,2.188-5.908,4.336-7.594c3.265-2.565,7.875,0.367,8.477,5.689c1.351,11.941,2.812,23.931,3.049,35.924
	c0.469,23.68,0.138,47.376,0.138,71.484c2.447,0,5.213,0.104,7.97-0.017c17.932-0.785,35.89-2.026,53.666,1.588
	c3.794,0.772,9.421,0.979,8.828,6.537c-0.563,5.266-5.888,4.02-9.67,4.368c-19.65,1.805-39.296,3.636-58.952,5.376
	c-2.87,0.254-3.998,1.44-4.096,4.382c-0.878,26.365-1.888,52.726-2.82,79.09c-0.106,3.001,0.772,6.755-3.505,7.224
	c-4.54,0.497-4.797-3.495-5.344-6.625c-4.044-23.131-8.064-46.268-11.995-69.418C563.403,417.462,562.518,410.437,561.332,402.31z
	 M580.87,323.039c-0.757-0.046-1.513-0.092-2.269-0.137c-3.106,23.41-6.211,46.82-9.317,70.233
	c11.043,1.422,11.141,1.348,11.357-8.774c0.092-4.31,0.212-8.62,0.219-12.93C580.885,355.3,580.87,339.17,580.87,323.039z
	 M571.363,413.541c1.814,10.506,3.56,20.62,5.307,30.733c0.195-0.021,0.392-0.042,0.587-0.062
	c0.593-10.593,1.185-21.187,1.806-32.275C576.12,412.551,573.911,413.011,571.363,413.541z M615.182,399.522
	c-0.057-0.33-0.113-0.659-0.17-0.989c-8.436,0.519-16.874,1.037-25.31,1.556c0.042,0.561,0.084,1.122,0.125,1.683
	C598.279,401.023,606.73,400.272,615.182,399.522z M568.318,405.189c4.387-0.873,7.88-1.568,11.373-2.263
	C573.242,400.436,570.793,401.021,568.318,405.189z"/>
<path d="M645.943,1652.767c5.443,0.866,11.163,3.734,15.683-1.453c1.579-1.812,2.946-4.35,3.205-6.691
	c3.988-36.01,7.776-72.043,11.614-108.07c0.062-0.588,0.073-1.197,0.242-1.755c1.205-3.981,2.086-8.674,7.64-8.109
	c5.077,0.516,5.748,4.781,5.828,8.906c0.65,33.545,1.257,67.09,1.864,100.636c0.049,2.716,0.006,5.433,0.006,8.674
	c8.862-0.614,17.056-1.42,25.268-1.696c13.011-0.436,26.037-0.758,39.051-0.611c4.163,0.047,10.452-0.764,10.842,5.392
	c0.358,5.63-5.453,6.034-9.621,6.587c-18.345,2.432-36.72,4.64-55.092,6.855c-3.284,0.396-6.61,0.443-10.775,0.707
	c0,15.59-0.044,30.741,0.018,45.89c0.032,7.892,0.394,15.785,0.296,23.674c-0.031,2.476-0.74,5.101-1.817,7.33
	c-0.464,0.96-3.193,1.915-3.947,1.422c-1.615-1.054-3.186-2.867-3.778-4.692c-5.583-17.232-10.891-34.552-16.427-51.799
	c-1.865-5.81-4.325-11.429-6.184-17.24c-1.002-3.131-2.618-4.021-5.9-4.235c-11.194-0.73-22.362-1.922-33.525-3.073
	c-2.127-0.219-4.501-0.59-6.198-1.73c-1.751-1.176-3.949-3.416-3.888-5.116c0.073-2.045,2.112-5.555,3.666-5.769
	c12.442-1.712,24.96-2.931,37.488-3.882c1.433-0.109,3.063,2.362,4.601,3.636c-1.394,1.503-2.561,3.378-4.245,4.405
	C650.152,1651.999,647.936,1652.199,645.943,1652.767z M684.006,1645.982c-0.789-20.848-1.558-41.163-2.327-61.478
	c-0.337,0.013-0.673,0.026-1.009,0.039c-2.9,20.855-5.8,41.712-8.784,63.182C676.136,1647.113,679.59,1646.616,684.006,1645.982z
	 M682.358,1705.496c0.361-0.088,0.721-0.174,1.082-0.262c0-14.105,0-28.21,0-42.18c-4.946,0-9.502,0-14.508,0
	C673.529,1677.588,677.944,1691.542,682.358,1705.496z"/>
<path d="M1651.336,1154.237c4.924,0,9.848,0,15.15,0c-0.481-3.852-1.817-7.831,3.022-9.717c0.407-0.158,0.314-1.752,0.351-2.682
	c0.871-22.423,1.711-44.847,2.607-67.269c0.139-3.485-0.692-8.338,4.371-8.415c5.181-0.079,4.88,4.92,5.11,8.559
	c1.39,21.919,2.647,43.845,3.964,65.769c0.064,1.059,0.281,2.109,0.474,3.511c10.04,0,19.895-0.116,29.747,0.039
	c7.051,0.111,14.099,0.556,21.143,0.923c1.23,0.064,2.632,0.18,3.613,0.808c1.279,0.818,3.167,2.273,3.059,3.266
	c-0.134,1.227-1.899,2.984-3.216,3.253c-6.124,1.253-12.315,2.261-18.524,3.002c-11.655,1.392-23.339,2.54-35.299,3.82
	c0,2.665,0.01,5.145-0.002,7.626c-0.088,17.885-0.139,35.77-0.316,53.654c-0.027,2.689,0.546,6.586-3.202,6.865
	c-4.151,0.309-3.181-3.831-3.667-6.37c-3.641-19.032-7.306-38.061-10.723-57.134c-0.572-3.191-1.87-3.5-4.698-3.412
	c-14.732,0.458-29.471,0.687-44.209,0.893c-1.503,0.021-3.216-0.323-4.464-1.093c-1.024-0.633-2.364-2.593-2.057-3.192
	c0.845-1.648,2.258-3.714,3.846-4.146c5.88-1.6,11.905-2.695,17.906-3.814c5.236-0.977,10.49-2.015,15.783-2.447
	c2.096-0.172,4.319,1.219,6.484,1.898c-1.597,1.614-3.163,3.26-4.817,4.813c-0.351,0.328-1.026,0.312-1.551,0.455
	C1651.26,1153.878,1651.298,1154.057,1651.336,1154.237z M1679.613,1159.467c-2.505,0.316-4.127,0.52-5.943,0.748
	c1.988,9.765,3.892,19.115,5.943,29.188C1679.613,1179.119,1679.613,1169.649,1679.613,1159.467z M1716.293,1150.427
	c-14.37-1.86-27.6-0.92-30.018,2.482C1696.72,1152.045,1706.506,1151.236,1716.293,1150.427z M1675.356,1144.687
	c3.484-1.124,4.074-8.201,1.569-17.827C1676.417,1132.622,1675.911,1138.383,1675.356,1144.687z"/>
</svg>
