<?xml version="1.0" encoding="utf-8"?>
<!-- Generator: Adobe Illustrator 27.9.5, SVG Export Plug-In . SVG Version: 9.03 Build 54986)  -->
<svg version="1.1" id="Layer_1" xmlns="http://www.w3.org/2000/svg" xmlns:xlink="http://www.w3.org/1999/xlink" x="0px" y="0px"
	 viewBox="0 0 2000 2000" enable-background="new 0 0 2000 2000" xml:space="preserve">
<g>
	<path d="M603.789,1234.542c77.732-33.742,154.191-66.953,230.668-100.123c73.06-31.688,146.1-63.421,219.277-94.835
		c6.051-2.598,6.848-5.278,5.487-11.296c-16.597-73.381-32.357-146.981-41.448-221.71c-6.246-51.341-10.368-102.955-14.701-154.509
		c-1.946-23.154-2.076-46.461-3.06-69.697c-0.115-2.711-0.424-5.414-0.744-9.375c-12.015,3.162-23.252,5.845-34.328,9.079
		c-107.804,31.477-211.133,74.398-312.498,122.339c-30.38,14.368-60.839,28.568-91.29,42.786c-2.728,1.274-5.6,2.42-8.529,3.001
		c-1.327,0.264-3.828-0.661-4.22-1.663c-0.446-1.14,0.49-3.326,1.512-4.41c1.336-1.417,3.302-2.279,5.071-3.244
		c133.1-72.53,270.865-134.111,416.477-177.229c8.229-2.437,16.634-4.332,25.033-6.127c5.071-1.084,10.106-1.156,13.507,4.123
		c0.729,1.131,2.37,1.772,3.704,2.402c61.124,28.847,117.559,65.101,170.039,107.606c0.59,0.478,1.191,0.942,1.776,1.425
		c12.269,10.12,14.218,18.95,6.83,33.128c-1.264,2.426-3.992,4.09-6.043,6.105c-0.841-0.42-1.681-0.841-2.522-1.261
		c0.116-4.415-0.618-9.067,0.531-13.195c2.2-7.906-2.021-11.918-7.303-16.411c-42.961-36.547-90.088-66.871-139.393-93.99
		c-8.764-4.82-17.461-9.761-26.775-14.974c1.908,27.485,1.563,54.251,6.002,80.199c11.137,65.102,23.344,130.068,37.183,194.647
		c13.508,63.031,34.578,123.945,57.489,184.166c1.963,5.161,3.02,9.067-3.999,11.936c-8.065,3.297-15.279,8.609-23.105,12.567
		c-40.826,20.647-81.788,41.026-122.592,61.715c-69.87,35.425-139.659,71.009-209.473,106.545c-1.527,0.778-2.937,1.787-4.532,2.769
		c21.489,36.786,53.062,57.27,94.944,61.563c46.496,4.766,90.316-6.46,133.061-23.236c37.805-14.838,73.597-33.757,107.224-56.409
		c10.837-7.3,21.255-9.331,35.008-5.09c-1.699,0.838-3.498,1.52-5.08,2.539c-15.307,9.867-30.614,19.733-45.821,29.753
		c-2.432,1.603-5.072,3.575-6.42,6.033c-16.144,29.443-32.062,59.01-48.667,89.707c2.877-1.644,5.102-2.911,7.323-4.184
		c28.989-16.622,59.523-26.661,93.48-21.412c20.014,3.094,38.77,9.679,55.107,21.969c23.442,17.633,31.723,45.878,23.073,77.809
		c-0.792,2.924-1.899,5.76-2.775,8.663c-3.749,12.414-11.974,18.544-25.048,19.026c-28.56,1.053-57.103,3.516-85.658,3.59
		c-65.781,0.171-131.566-0.733-197.349-1.235c-2.523-0.019-5.169,0.018-7.529-0.71c-2.427-0.749-4.573-2.405-6.842-3.664
		c1.442-1.941,2.872-3.891,4.332-5.819c0.551-0.728,1.393-1.311,1.727-2.115c2.028-4.88,3.476-10.06,5.978-14.673
		c20.464-37.723,41.119-75.341,61.7-113c0.343-0.628,0.484-1.366,0.745-2.126c-15.922,3.03-31.595,6.7-47.473,8.881
		c-27.319,3.753-54.543,3.167-81.052-5.647c-33.522-11.146-58.032-32.09-71.184-66.571c-2.362,1.131-4.75,2.247-7.113,3.411
		c-24.252,11.946-48.381,24.15-72.798,35.749c-12.52,5.947-16.722,4.323-22.616-8.381c-3.679-7.93-5.952-16.512-9.094-25.481
		c-7.628,2.622-15.929,5.356-24.142,8.334c-7.895,2.862-11.118,2.067-14.331-5.826c-4.379-10.755-8.312-21.728-11.761-32.818
		c-19.008-61.129-33.205-123.406-40.508-186.987c-4.98-43.354-8.073-86.962-10.734-130.534c-2.357-38.598-3.058-77.299-4.16-115.965
		c-0.109-3.809,2.091-7.684,3.219-11.529c1.564,3.471,4.199,6.847,4.517,10.429c2.055,23.133,3.779,46.299,5.28,69.476
		c2.417,37.317,4.079,74.69,6.965,111.969c4.388,56.689,11.982,113.001,25.79,168.21c8.089,32.34,18.181,64.184,27.618,96.178
		C598.592,1223.139,601.562,1229.038,603.789,1234.542z M882.862,1425.102c42.33,0.002,85.825,0.661,129.292-0.167
		c49.799-0.948,99.575-3.144,149.35-5.087c3.032-0.119,7.111-1.99,8.766-4.384c15.452-22.356,9.187-59.63-13.034-75.183
		c-22.862-16.003-48.791-22.89-76.302-18.577c-37.34,5.854-69.598,22.101-93.905,52.152c-1.422,1.759-4.433,2.233-6.705,3.304
		c-0.629-2.038-2.246-4.386-1.721-6.062c2.783-8.878,4.87-18.305,9.471-26.22c14.183-24.404,29.437-48.185,44.189-72.26
		c4.604-7.514,8.939-15.192,13.035-22.177c-25.77,11.213-51.217,23.047-77.306,33.24c-9.716,3.796-15.033,9.155-19.731,18.301
		C926.956,1343.465,904.601,1384.41,882.862,1425.102z M638.627,1232.486c4.088,10.496,8.159,20.947,12.206,31.335
		c129.702-66.705,259.018-133.211,388.334-199.718c-0.264-0.577-0.528-1.154-0.792-1.731
		C905.292,1119.007,772.208,1175.641,638.627,1232.486z M1037.148,830.357c9.296,72.382,26.184,143.417,41.353,215.307
		c6.207-3.005,12.894-6.242,19.443-9.412C1073.126,968.22,1051.418,900.453,1037.148,830.357z"/>
	<path d="M1058.072,1152.39c3.033-1.227,5.985-3.231,9.113-3.559c24.854-2.608,49.72-5.182,74.63-7.165
		c12.338-0.982,24.785-0.526,37.164-1.118c2.721-0.13,6.314-1.173,7.896-3.11c23.229-28.434,45.415-57.613,61.091-91.116
		c14.571-31.14,16.186-63.819,11.496-97.268c-4.396-31.353-10.915-62.132-23.933-91.388c-7.299,2.391-14.536,5.229-22.014,7.108
		c-13.366,3.359-23.178,0.253-27.607-8.022c-4.839-9.042-2.231-21.801,6.483-30.541c2.298-2.305,4.905-4.546,7.794-5.935
		c2.146-1.032,4.977-0.641,7.504-0.884c-0.484,2.284-0.502,4.811-1.543,6.805c-2.677,5.125-6.49,9.741-8.601,15.056
		c-3.507,8.827-0.512,12.451,8.868,11.784c2.499-0.178,5.064-0.576,7.424-1.383c29.616-10.124,54.123-27.281,71.241-53.757
		c4.144-6.409,6.662-14.182,8.526-21.677c2.691-10.824-2.102-18.116-12.903-21.302c-14.523-4.283-28.605-1.047-42.464,3.274
		c-21.41,6.676-40.281,17.643-55.262,34.566c-3.085,3.486-4.921,8.052-7.605,11.933c-0.988,1.429-2.762,2.315-4.178,3.448
		c-1.108-1.66-3.455-3.666-3.105-4.919c1.396-5.001,2.687-10.496,5.752-14.47c6.285-8.15,13.687-15.439,21.063-23.56
		c-2.579-3.984-5.643-8.715-8.976-13.862c-9.178,8.847-19.051,7.648-27.731,1.148c-7.339-5.496-13.443-12.759-19.499-19.755
		c-1.321-1.526-0.119-5.237-0.079-7.942c2.241,0.919,4.771,1.442,6.671,2.828c7.303,5.327,14.175,11.281,21.73,16.2
		c2.061,1.342,5.949-0.121,8.998-0.297c-0.408-3.222,0.251-7.177-1.383-9.558c-30.302-44.157-69.64-78.437-115.87-105.085
		c-5.026-2.897-10.036-5.841-14.882-9.024c-2.339-1.536-4.282-3.676-5.643-6.615c36.472,12.049,68.144,31.929,96.63,57.357
		c28.544,25.48,51.647,55.308,71.445,88.2c17.544-9.614,35.679-17.613,55.645-18.591c9.537-0.467,19.782,0.986,28.74,4.234
		c12.999,4.712,19.062,17.679,17.063,31.414c-2.574,17.689-10.903,32.72-23.36,45.029c-10.913,10.783-23.134,20.244-35.212,30.664
		c14.215,38.504,22.647,79.562,25.651,121.793c2.219,31.2-4.856,60.258-19.696,87.559c-14.081,25.905-31.709,49.318-50.815,71.674
		c-1.758,2.058-3.451,4.172-5.072,6.136c33.177,0.873,66.087,1.738,97.414,2.562c4.478-19.517,7.158-37.899,12.975-55.228
		c14.246-42.437,41.89-72.202,86.19-84.265c23.962-6.525,46.016-2.423,65.908,12.819c11.527,8.832,16.579,20.061,11.442,33.921
		c-5.161,13.925-10.556,27.978-17.803,40.876c-28.815,51.284-61.665,99.833-101.603,143.253
		c-8.379,9.109-17.597,17.464-26.644,25.935c-4.67,4.372-12.891,3.573-20.851-1.708c-13.348-8.854-21.272-21.567-24.341-36.998
		c-1.054-5.301-2.902-7.234-8.057-7.648c-47.405-3.807-94.795-7.803-142.191-11.71c-26.456-2.181-52.926-4.196-79.36-6.611
		c-2.391-0.219-4.564-2.827-6.838-4.326c2.501-1.078,5.056-3.205,7.495-3.08c67.958,3.472,135.905,7.157,203.851,10.856
		c8.331,0.453,16.643,1.264,24.973,1.753c6.84,0.401,9.547,3.826,8.24,10.69c-0.228,1.198-0.499,2.537-0.2,3.665
		c3.687,13.921,10.669,25.588,23.154,33.448c4.696,2.957,8.315,2.443,12.631-1.6c31.814-29.803,57.883-64.317,81.397-100.686
		c16.43-25.414,30.916-52.088,46.129-78.281c1.884-3.243,3.023-6.946,4.301-10.51c6.931-19.327,4.652-25.074-13.086-35.039
		c-14.29-8.028-29.313-9.142-44.783-4.951c-40.522,10.978-65.281,38.662-77.581,77.329c-5.914,18.593-7.926,38.464-11.189,57.843
		c-1.151,6.837-1.729,7.367-8.361,4.529c-3.29-1.408-7.266-1.662-10.933-1.671c-51.112-0.129-102.228-0.462-153.337-0.003
		c-23.248,0.208-46.479,2.104-69.724,3.078c-3.238,0.135-6.515-0.633-9.773-0.983
		C1058.493,1154.766,1058.283,1153.578,1058.072,1152.39z"/>
	<path d="M1027.106,1426.269c58.437-1.039,116.87-2.299,175.31-3.062c73.875-0.964,147.755-1.607,221.634-2.175
		c13.144-0.101,26.325,0.465,39.43,1.476c5.644,0.435,13.822,0.378,13.117,9.048c-0.708,8.709-8.494,6.795-14.362,6.79
		c-75.393-0.063-150.787-0.466-226.178-0.153c-59.457,0.247-118.909,1.433-178.365,2.078c-95.633,1.038-191.266,2.415-286.901,2.773
		c-50.088,0.188-100.185-1.401-150.274-2.402c-9.34-0.187-18.716-1.009-27.953-2.367c-2.73-0.401-5.042-3.644-7.545-5.585
		c2.66-1.2,5.321-3.449,7.98-3.448c83.992,0.025,167.987,0.745,251.976,0.32c60.715-0.307,121.422-2.089,182.133-3.214
		C1027.107,1426.323,1027.106,1426.296,1027.106,1426.269z"/>
	<path d="M918.408,708.486c-21.082,8.458-40.139,15.807-58.958,23.724c-28.881,12.15-57.564,24.771-86.422,36.975
		c-4.29,1.814-10.59,6.933-13.366,1.2c-3.238-6.688,5.307-7.995,9.455-9.891c47.109-21.529,94.378-42.708,141.627-63.93
		c2.292-1.029,4.752-1.767,7.202-2.347c8.528-2.021,10.566,1.045,10.357,9.51c-0.304,12.311,0.816,24.727,2.207,36.999
		c5.727,50.494,11.786,100.95,17.72,151.42c0.089,0.754,0.061,1.527,0.21,2.267c2.23,11.129-0.94,18.52-11.843,24.338
		c-32.551,17.372-64.4,36.054-96.664,53.97c-5.471,3.038-11.492,5.339-17.522,7.057c-10.505,2.992-16.922,0.179-20.317-10.154
		c-5.117-15.576-9.705-31.395-13.318-47.382c-9.259-40.963-16.043-82.351-18.352-124.35c-0.192-3.489,1.798-7.098,2.774-10.651
		c1.516,3.136,3.734,6.121,4.442,9.43c10.459,48.883,20.654,97.823,31.105,146.707c1.261,5.899,3.926,11.486,5.433,17.347
		c1.384,5.384,4.191,6.333,8.84,4.053c14.293-7.01,28.958-13.35,42.821-21.124c22.049-12.364,43.531-25.737,65.343-38.528
		c3.822-2.241,4.777-4.716,4.256-9.218c-6.101-52.714-12.084-105.444-17.633-158.218
		C916.865,728.747,918.116,719.574,918.408,708.486z"/>
	<path d="M1188.511,936.685c-19.825-1.053-34.017-9.994-46.675-21.613c-11.326-10.396-19.841-22.87-23.553-38.039
		c-0.531-2.172,1.032-4.856,1.626-7.303c1.998,1.45,4.797,2.462,5.869,4.419c10.435,19.05,23.989,34.926,43.992,44.423
		c18.665,8.862,36.444,5.203,46.284-10.126c3.034-4.727,4.34-10.617,6.114-16.08c1.277-3.933,0.791-9.99,6.57-9.347
		c6.437,0.716,6.638,6.96,6.294,11.991c-1.261,18.476-16.745,36.291-34.888,40.267
		C1195.749,936.24,1191.172,936.378,1188.511,936.685z"/>
	<path d="M824.232,864.071c2.212-15.844-2.177-29.883-11.111-42.923c-7.119-10.391-9.776-22.05-7.829-34.578
		c0.419-2.693,1.205-5.411,2.353-7.87c0.453-0.971,2.336-1.617,3.61-1.692c0.503-0.03,1.741,1.997,1.596,2.922
		c-2.852,18.15,7.443,31.507,15.438,46.167c4.482,8.219,6.84,18.683,6.716,28.091c-0.226,17.191,1.362,33.582,7.907,49.612
		c2.218,5.433,2.613,11.771,2.899,17.741c0.095,1.974-2.766,4.089-4.275,6.14c-2.057-1.539-5.665-2.847-5.935-4.652
		C832.643,903.203,820.326,885.17,824.232,864.071z"/>
	<path d="M1075.586,881.878c1.424-17.278,7.761-30.928,17.852-42.023c8.691-9.555,18.868-18.327,29.872-24.997
		c6.48-3.928,15.825-3.369,23.946-4.145c1.61-0.154,3.517,2.803,5.287,4.326c-1.688,1.457-3.166,3.766-5.096,4.243
		c-29.091,7.188-45.533,27.394-55.497,54.016c-1.707,4.561-0.986,9.978-1.961,14.886c-0.52,2.616-2.271,4.988-3.466,7.469
		c-2.927-1.521-6.866-2.345-8.518-4.744C1076.044,888.06,1076.05,883.857,1075.586,881.878z"/>
	<path d="M1134.053,788.985c-0.448,16.314-17.167,27.119-33.328,21.157c-13.542-4.996-22.157-15.439-28.42-27.947
		c-0.819-1.635,0.1-4.14,0.215-6.243c2.095,0.791,4.611,1.09,6.21,2.46c5.549,4.755,10.575,10.131,16.216,14.765
		c2.849,2.34,6.507,4.803,9.948,5.037c4.395,0.3,10.353-0.212,13.021-2.936c2.626-2.682,3.782-9.249,2.398-12.904
		c-2.895-7.643-7.836-14.521-12.04-21.652c-1.78-3.019-4.091-5.753-5.623-8.88c-0.713-1.456-0.145-3.54-0.158-5.34
		c1.876,0.027,4.001-0.517,5.587,0.174C1119.498,751.654,1134.405,776.161,1134.053,788.985z"/>
	<path d="M1184.762,963.887c-0.6,4.089-1.364,7.514-1.557,10.972c-0.462,8.277,2.571,15.128,10.169,18.788
		c8.05,3.879,15.959,2.125,22.657-3.436c5.177-4.297,7.859-9.975,5.175-16.853c-1.805-4.625-4.145-9.151-10.391-7.476
		c-4.803,1.288-8.083,8.493-6.826,13.669c0.759,3.126,5.167,7.562-1.199,8.927c-5.36,1.149-7.053-3.469-7.92-8.035
		c-1.986-10.469,5.773-22.464,15.715-24.138c10.191-1.716,19.708,6.181,21.396,17.752c2.338,16.036-10.19,30.34-27.438,31.327
		c-20.155,1.154-32.988-13.772-28.865-33.571C1176.909,965.907,1178.722,964.236,1184.762,963.887z"/>
	<path d="M856.463,753.324c0.515,6.192,0.244,12.58,1.721,18.534c2.539,10.231,6.243,20.168,9.313,30.273
		c1.971,6.488,4.157,12.976,5.277,19.628c0.448,2.66-1.708,5.758-2.679,8.657c-2.524-2.069-6.475-3.67-7.332-6.285
		c-4.464-13.621-9.029-27.328-11.75-41.355c-1.576-8.124,0.128-16.917,0.668-25.389c0.104-1.632,1.663-3.171,2.55-4.752
		C854.976,752.864,855.719,753.094,856.463,753.324z"/>
	<path d="M871.407,858.534c1.05,1.629,2.708,3.14,3.05,4.906c1.956,10.101,3.823,20.233,5.161,30.428
		c0.276,2.1-1.825,4.512-2.83,6.78c-1.582-1.659-3.836-3.047-4.636-5.023c-4.802-11.865-5.318-24.05-2.827-36.335
		C870.019,859.038,870.713,858.786,871.407,858.534z"/>
</g>
</svg>
