<?xml version="1.0" encoding="utf-8"?>
<!-- Generator: Adobe Illustrator 27.9.5, SVG Export Plug-In . SVG Version: 9.03 Build 54986)  -->
<svg version="1.1" id="Layer_1" xmlns="http://www.w3.org/2000/svg" xmlns:xlink="http://www.w3.org/1999/xlink" x="0px" y="0px"
	 viewBox="0 0 2000 2000" enable-background="new 0 0 2000 2000" xml:space="preserve">
<g>
	<path d="M1059.635,1132.457c-2.66-9.033-5.328-18.095-8.183-27.79c-8.22-0.022-13.432,2.349-14.316,11.331
		c-1.036,10.528-0.312,23.618-12.963,26.887c-12.539,3.24-18.053-8.955-24.882-16.922c-0.266-0.31-0.624-0.541-2.125-1.817
		c-28.635,11.746-57.887,23.912-87.269,35.753c-29.875,12.038-59.962,23.549-89.8,35.677c-26.389,10.725-48.286,5.061-66.289-16.761
		c-20.46-24.8-40.949-49.578-61.634-74.617c1.928,3.679,3.688,7.466,5.817,11.031c17.611,29.477,35.395,58.851,52.895,88.393
		c6.69,11.292,4.503,16.293-7.92,20.042c-72.323,21.817-144.647,43.629-216.972,65.441c-2.375,0.716-4.751,1.425-7.132,2.115
		c-32.736,9.482-37.744,6.901-52.764-24.055c-12.048-24.832-24.955-49.248-37.968-74.806c-26.696,18.325-52.14,35.79-78.463,53.858
		c4.635,8.056,8.462,16.289,13.833,23.347c2.512,3.301,7.95,5.94,12.161,6.09c12.744,0.455,25.539-0.75,38.311-0.703
		c6.121,0.023,12.41,0.753,18.319,2.317c12.471,3.3,15.358,12.394,7.221,22.293c-5.34,6.495-10.785,13.091-17.152,18.502
		c-6.563,5.578-14.299,9.775-22.113,14.968c0.874,2.767,2.601,5.479,2.294,7.939c-0.408,3.263-1.725,8.191-3.897,8.984
		c-2.446,0.891-7.385-1.128-9.277-3.468c-3.814-4.718-6.299-10.511-9.541-16.229c-5.114,0.849-9.905,1.825-14.744,2.41
		c-12.075,1.463-22.609-2.232-29.181-12.424c-9.835-15.253-18.918-31.034-27.538-47.013c-4.677-8.668-1.101-15.194,7.237-20.64
		c32.867-21.465,65.353-43.514,98.054-65.235c5.396-3.584,7.548-7.289,8.377-14.579c0.908-7.994,6.405-17.185,12.722-22.514
		c16.71-14.097,33.986-28.012,52.76-39.075c45.209-26.641,91.4-51.615,137.205-77.245c2.099-1.174,4.285-2.193,5.845-2.985
		c0.446-1.224,0.759-1.636,0.697-1.981c-1.283-7.129-11.04-16.274,2.13-20.048c3.88-1.112,10.431,7.506,15.911,11.451
		c5.259,3.786,14.019,4.369,12.122,14.422c-0.284,1.507,1.773,3.585,2.982,5.226c27.967,37.951,55.87,75.949,84.052,113.74
		c4.917,6.594,11.289,12.083,16.541,18.451c13.463,16.323,29.593,20.68,49.434,12.711c58.59-23.533,117.291-46.788,177.002-70.572
		c-23.326-45.036-45.251-89.191-56.552-138.076c-9.255-0.847-18.835-0.887-27.992-2.876c-5.486-1.192-10.31-5.432-15.432-8.302
		c3.518-5.048,5.912-12.498,10.735-14.751c29.573-13.812,59.474-26.987,89.677-39.37c78.777-32.297,157.859-63.848,236.579-96.282
		c13.179-5.43,25.153-13.786,40.225-22.211c-21.315-1.946-139.151,42.671-265.194,100.232
		c-85.127,38.875-169.509,79.38-254.224,119.155c-0.837-1.313-1.673-2.626-2.51-3.94c7.463-4.746,14.595-10.141,22.441-14.134
		c49.735-25.313,99.237-51.133,149.551-75.251c102.518-49.141,206.027-96.087,313.571-133.454
		c11.667-4.054,23.583-7.841,35.698-9.948c5.108-0.888,13.581,1.328,15.863,5.016c2.277,3.681,0.743,13.231-2.647,16.263
		c-11.269,10.075-22.998,20.951-36.576,26.89c-47.311,20.696-95.458,39.485-143.314,58.93
		c-59.732,24.27-119.495,48.464-179.229,72.729c-2.923,1.187-5.697,2.741-8.404,6.635c8.656,0.783,17.305,1.646,25.968,2.325
		c7.907,0.62,12.547,3.242,10.128,12.577c-0.858,3.31-0.117,7.55,1.211,10.833c16.378,40.493,33,80.887,49.29,120.65
		c26.993-5.545,28.781-6.093,26.499-29.402c-4.129-42.165-10.181-84.141-15.476-126.191c-0.412-3.27-2.264-6.773-1.51-9.662
		c0.8-3.062,3.433-6.707,6.187-7.824c1.826-0.74,6.175,1.886,7.768,4.148c2.022,2.875,2.555,6.87,3.461,10.449
		c10.231,40.419,20.397,80.854,30.623,121.274c1.193,4.718,2.642,9.371,4.139,14.641c102.446-37.808,203.815-75.22,305.585-112.779
		c-2.206-6.896-5.398-14.097-6.524-21.607c-0.536-3.576,2.862-7.743,4.479-11.641c3.822,2.312,7.949,4.258,11.337,7.09
		c1.684,1.407,2.097,4.406,2.94,6.738c7.377,20.408,7.55,21.424,29.806,19.292c34.408-3.296,68.591-9.074,103.024-11.934
		c49.602-4.121,99.346-6.537,149.023-9.772c6.031-0.393,12.025-1.345,19.103-2.161c-3.502-31.447-6.139-61.769-10.385-91.865
		c-8.458-59.959-16.486-120.035-27.42-179.56c-4.413-24.022-15.649-46.856-24.494-69.958c-2.765-7.221-7.387-13.894-11.975-20.226
		c-21.358-29.478-33.416-34.169-65.249-17.855c-68.805,35.262-136.592,72.508-204.902,108.744
		c-7.798,4.136-8.715,8.211-5.308,16.589c28.23,69.405,50.02,140.895,67.557,213.705c0.482,2.005,1.595,4.312,1.034,6.026
		c-1.408,4.299-3.61,8.339-5.493,12.482c-3.803-2.474-9.064-4.104-11.091-7.606c-3.669-6.338-5.609-13.728-7.923-20.792
		c-17.646-53.877-37.872-106.65-63.596-157.315c-20.529-40.434-20.098-41.279-62.13-25.657
		c-124.995,46.457-245.338,103.405-364.873,162.212c-75.34,37.065-151.182,73.111-226.782,109.65
		c-5.583,2.698-10.833,6.22-16.617,8.309c-2.784,1.006-6.452-0.435-9.719-0.767c0.845-3.246,0.629-7.776,2.726-9.507
		c7.599-6.276,15.413-12.727,24.149-17.116c44.349-22.281,89.238-43.49,133.522-65.896
		c122.946-62.207,247.3-121.351,375.435-172.176c39.153-15.53,79.112-29.043,118.798-43.212c13.359-4.77,15.127-3.036,13.873,10.906
		c-0.163,1.813,0.525,4.091,1.613,5.57c14.238,19.363,28.621,38.62,42.967,57.904c-1.373,1.06-2.747,2.12-4.121,3.181
		c-7.424-20.018-14.371-40.229-22.393-60.004c-10.314-25.429-10.523-28.991,13.65-42.118
		c69.751-37.877,139.894-75.047,210.257-111.777c24.337-12.704,37.109-13.461,65.127,13.446
		c17.964,17.251,27.795,39.827,36.375,62.852c19.039,51.089,27.186,104.527,33.531,158.258
		c5.991,50.74,11.002,101.597,16.316,152.415c2.046,19.57-1.667,24.83-21.345,25.885c-36.571,1.96-73.315,1.456-109.779,4.478
		c-45.918,3.806-91.579,13.688-137.443,14.328c-44.102,0.615-83.361,15.265-123.239,29.275
		c-74.034,26.009-147.549,53.493-221.266,80.401c-4.598,1.678-9.076,3.687-14.686,5.983c3.29,11.841,6.172,23.358,9.85,34.615
		c0.866,2.65,4.073,5.052,6.775,6.507c44.662,24.058,51.911,74.46,15.754,110.42c-2.04,2.03-4.147,3.992-4.115,3.961
		c11.049,29.473,22.402,57.374,32.026,85.859c32.547,96.34,64.476,192.889,96.672,289.348c0.861,2.579,2.053,5.048,3.968,7.284
		c-21.684-106.471-51.048-210.743-91.391-311.926c1.827-0.944,3.653-1.888,5.479-2.832c3.39,4.808,7.957,9.168,9.982,14.495
		c15.244,40.11,32.051,79.786,44.452,120.783c24.357,80.525,45.855,161.896,56.429,245.662c0.766,6.063,0.734,12.382-0.103,18.419
		c-0.36,2.596-3.431,6.255-5.811,6.731c-2.405,0.482-6.751-1.662-8.014-3.911c-3.409-6.068-6.046-12.666-8.259-19.297
		c-43.581-130.56-87.017-261.168-130.613-391.724c-4.673-13.994-10.142-27.722-17.918-41.28
		c-2.726,11.749-6.617,23.363-7.993,35.268c-11.097,96.021-21.156,192.164-32.786,288.118
		c-4.221,34.821-11.631,69.269-18.074,103.796c-1.636,8.764-3.717,19.989-15.194,19.595c-11.688-0.401-13.225-11.751-13.228-20.676
		c-0.012-34.198-1.391-68.616,1.866-102.555c9.769-101.824,28.378-202.274,51.531-301.884c0.447-1.923,0.596-3.915-1.07-7.669
		c-3.468,3.326-7.602,6.187-10.3,10.051c-27.904,39.964-55.177,80.374-83.396,120.113
		c-64.346,90.616-129.108,180.936-193.768,271.329c-3.356,4.692-6.724,9.75-11.222,13.125c-3.331,2.499-8.507,2.539-12.862,3.674
		c-0.621-4.373-3.158-9.673-1.562-12.973c13.276-27.437,26.886-54.732,41.196-81.644
		c66.398-124.871,146.603-240.974,227.433-356.651c4.569-6.539,5.609-10.897,1.556-18.401
		c-15.242-28.213-7.064-62.178,17.778-74.938c6.549-3.364,10.27-11.89,16.548-16.222
		C1043.343,1138.091,1051.19,1136.049,1059.635,1132.457z M439.171,1183.599c12.828,25.285,24.761,49.254,37.101,73.012
		c14.128,27.203,7.349,30.844,44.248,19.653c71.005-21.536,141.99-43.14,212.966-64.776c1.072-0.327,1.906-1.436,2.59-1.975
		c-31.051-52.85-61.996-105.518-93.171-158.579C574.978,1095.166,507.235,1139.278,439.171,1183.599z M786.929,1620.196
		c2.7-3.558,5.541-7.018,8.079-10.688c61.073-88.289,122.031-176.658,183.211-264.872c18.738-27.017,38.073-53.62,57.294-80.637
		c-4.571-2.498-10.971-5.995-17.251-9.427C979.635,1297.642,804.083,1573.094,786.929,1620.196z M1032.241,1239.974
		c17.332,14.466,41.76,10.337,57.724-9.287c18.285-22.476,15.627-52.178-7.102-69.788c-1.833,13.956-10.31,13.376-20.799,10.582
		c-6.909-1.841-14.372-1.607-21.72-2.314c0.169,15.282,3.096,20.529,17.755,33.335c11.825,10.33,11.338,19.552-2.266,27.29
		C1048.508,1233.956,1040.296,1236.561,1032.241,1239.974z M1047.125,1389.417c-13.847,56.399-43.087,251.299-32.81,273.68
		C1025.252,1571.87,1036.188,1480.644,1047.125,1389.417z M314.575,1267.338c11.303,15.72,21.508,30.648,32.524,44.951
		c6.447,8.37,15.105,7.606,25.901,2.677c-13.665-19.979-26.668-38.988-39.811-58.204
		C328.4,1259.483,323.804,1262.094,314.575,1267.338z M597.499,1064.751c-57.616,28.892-113.704,59.933-162.148,102.424
		c0.631,0.944,1.262,1.889,1.893,2.833C490.663,1134.923,544.081,1099.837,597.499,1064.751z M1045.285,1219.025
		c-9.304-13.767-17.579-26.011-26.231-38.813c-9.439,15.941-8.562,31.574,1.561,49.285
		C1029.381,1225.776,1037.892,1222.163,1045.285,1219.025z M374.713,1290.749c4.32,7.814,7.926,14.335,12.106,21.896
		c13.883-6.736,26.64-12.925,39.395-19.114c-0.437-1.406-0.873-2.812-1.31-4.217
		C408.812,1289.775,392.719,1290.235,374.713,1290.749z M1010.035,1119.495c4.328,4.561,7.728,8.145,12.792,13.481
		c1.205-7.781,1.974-12.747,3.073-19.846C1019.636,1115.642,1015.396,1117.344,1010.035,1119.495z"/>
	<path d="M685.061,659.5c-19.538-1.179-38.306-1.913-56.988-3.606c-9.484-0.86-18.885-3.157-28.154-5.481
		c-2.096-0.526-3.487-3.863-5.203-5.906c2.217-1.558,4.362-4.342,6.663-4.478c15.436-0.908,30.892-0.893,45.9,3.651
		c2.525,0.764,7.062,1.386,2.044,6.779c11.729,0,22.617,0,34.179,0c-0.422-4.505-0.966-9.203-1.279-13.916
		c-0.547-8.23,1.73-10.627,9.819-10.569c2.297,0.016,4.594,0.084,6.889,0.172c2.28,0.087,4.558,0.227,7.453,0.376
		c0-5.746-0.298-11.299,0.048-16.812c2.251-35.818,4.555-71.634,7.07-107.434c0.422-6.002,1.795-11.96,3.042-17.872
		c0.778-3.687,1.892-7.756,6.807-7.597c4.699,0.152,6.179,3.787,6.624,7.76c1.185,10.568,2.557,21.132,3.249,31.736
		c2.193,33.604,1.877,67.175-2.083,100.666c-0.411,3.481-0.345,7.019-0.521,10.981c8.959,0.553,17.446,1.155,25.941,1.583
		c11.257,0.568,22.535,0.809,33.775,1.595c4.06,0.284,9.888-0.677,10.743,5.029c0.817,5.459-4.787,6.561-8.523,7.359
		c-20.708,4.421-41.512,8.39-62.285,12.509c-0.792,0.157-1.595,0.26-2.972,0.482c-1.707,16.376-3.176,32.742-5.179,49.042
		c-2.084,16.956-4.487,33.881-7.248,50.739c-0.474,2.897-3.115,7.309-5.314,7.677c-5.033,0.841-5.264-4.409-5.935-7.879
		c-6.084-31.491-12.001-63.014-17.979-94.526C685.496,660.768,685.206,660.004,685.061,659.5z M693.844,658.746
		c5.123,26.468,10.128,52.321,15.132,78.174c0.599-0.002,1.199-0.003,1.799-0.005c2.799-26.3,5.598-52.6,8.497-79.841
		C710.633,657.642,702.656,658.167,693.844,658.746z M722.491,514.685c-4.365,37.269-8.283,74.616-9.314,112.214
		c3.625,0,6.216,0,8.749,0C726.249,589.258,726.727,552.03,722.491,514.685z M785.764,640.117c-0.104-1.019-0.209-2.038-0.313-3.056
		c-18.433,0-36.867,0-55.874,0c-0.404,3.498-0.865,7.492-1.504,13.022C748.104,646.623,766.934,643.37,785.764,640.117z
		 M690.984,635.035c0.438,4.664,0.503,8.662,1.336,12.493c0.307,1.413,2.421,3.458,3.717,3.462
		c7.855,0.027,15.712-0.453,24.009-0.782c0.413-5.158,0.754-9.411,1.128-14.066c-3.076,0-5.427,0-7.435,0
		c-0.919,3.022-1.699,5.585-2.479,8.148c-0.585-0.002-1.171-0.005-1.756-0.007c-1.037-2.976-2.075-5.951-3.224-9.248
		C701.438,635.035,696.505,635.035,690.984,635.035z"/>
	<path d="M1589.107,1290.683c-16.961-1.024-33.254-1.66-49.472-3.13c-8.233-0.746-16.394-2.741-24.441-4.758
		c-1.82-0.456-3.028-3.354-4.517-5.127c1.925-1.353,3.787-3.77,5.784-3.887c13.4-0.788,26.818-0.775,39.847,3.169
		c2.192,0.664,6.131,1.203,1.774,5.885c10.182,0,19.634,0,29.671,0c-0.366-3.911-0.839-7.989-1.111-12.081
		c-0.475-7.145,1.502-9.225,8.524-9.175c1.994,0.014,3.988,0.073,5.98,0.149c1.979,0.075,3.957,0.197,6.47,0.326
		c0-4.988-0.259-9.809,0.042-14.595c1.954-31.094,3.954-62.186,6.138-93.265c0.366-5.21,1.558-10.383,2.641-15.515
		c0.675-3.201,1.643-6.733,5.909-6.595c4.08,0.132,5.364,3.287,5.751,6.737c1.029,9.174,2.219,18.345,2.82,27.551
		c1.903,29.172,1.629,58.316-1.808,87.39c-0.357,3.022-0.3,6.093-0.452,9.533c7.778,0.48,15.145,1.003,22.52,1.375
		c9.773,0.493,19.563,0.702,29.321,1.385c3.525,0.246,8.584-0.588,9.326,4.366c0.709,4.739-4.156,5.696-7.399,6.388
		c-17.977,3.838-36.038,7.284-54.07,10.859c-0.688,0.136-1.385,0.226-2.58,0.418c-1.482,14.216-2.757,28.423-4.496,42.574
		c-1.809,14.72-3.895,29.413-6.292,44.047c-0.412,2.515-2.704,6.345-4.613,6.664c-4.37,0.73-4.57-3.827-5.152-6.84
		c-5.281-27.338-10.418-54.704-15.608-82.06C1589.485,1291.783,1589.233,1291.12,1589.107,1290.683z M1596.731,1290.028
		c4.448,22.977,8.792,45.42,13.136,67.864c0.52-0.001,1.041-0.003,1.562-0.004c2.43-22.831,4.86-45.663,7.377-69.311
		C1611.306,1289.069,1604.381,1289.525,1596.731,1290.028z M1621.601,1164.966c-3.789,32.354-7.191,64.776-8.085,97.415
		c3.147,0,5.396,0,7.595,0C1624.863,1229.704,1625.278,1197.385,1621.601,1164.966z M1676.529,1273.856
		c-0.09-0.884-0.181-1.769-0.271-2.653c-16.002,0-32.005,0-48.505,0c-0.351,3.037-0.751,6.504-1.306,11.305
		C1643.836,1279.503,1660.182,1276.679,1676.529,1273.856z M1594.249,1269.444c0.38,4.048,0.437,7.519,1.16,10.845
		c0.266,1.226,2.102,3.002,3.227,3.006c6.819,0.023,13.64-0.394,20.843-0.679c0.359-4.478,0.655-8.17,0.979-12.211
		c-2.67,0-4.712,0-6.455,0c-0.798,2.623-1.475,4.848-2.152,7.073c-0.508-0.002-1.016-0.004-1.525-0.006
		c-0.901-2.583-1.801-5.166-2.799-8.029C1603.324,1269.444,1599.042,1269.444,1594.249,1269.444z"/>
	<path d="M1223.057,363.913c-4.462,7.278-11.462,5.481-16.849,9.006c9.031,0.57,18.061,1.152,27.094,1.688
		c0.66,0.039,1.448-0.085,1.994-0.425c3.945-2.461,7.843-4.997,12.775-8.164c0-12.043,0-25.82,0-39.597
		c-0.191-0.03-0.381-0.061-0.571-0.091c-1.459,10.687-2.911,21.374-4.384,32.059c-0.262,1.9-0.346,3.886-1.003,5.65
		c-0.459,1.234-1.754,2.157-2.675,3.219c-0.874-1.283-2.527-2.584-2.499-3.847c0.22-9.788,0.249-19.626,1.322-29.34
		c1.976-17.9,4.622-35.726,6.995-53.582c0.092-0.692,0.231-1.38,0.379-2.063c0.667-3.065,1.824-6.475,5.499-5.496
		c1.99,0.53,4.132,3.489,4.686,5.728c0.907,3.664,0.827,7.642,0.725,11.475c-0.629,23.615-1.384,47.227-2.085,70.84
		c-0.051,1.712-0.007,3.426-0.007,5.649c10.906-1.426,21.397-2.96,31.928-4.134c14.944-1.666,29.91-3.159,44.889-4.472
		c2.02-0.177,4.67,0.558,6.143,1.867c2.269,2.016,0.429,5.492-3.824,6.655c-10.436,2.855-20.868,5.852-31.469,7.947
		c-15.895,3.142-31.933,5.562-48.295,8.355c-0.059,0.831-0.252,2.196-0.238,3.558c0.239,23.617,0.574,47.234,0.635,70.852
		c0.005,1.968-1.534,5.397-2.818,5.633c-3.568,0.655-3.106-2.768-3.369-5.091c-2.659-23.441-5.385-46.876-7.866-70.336
		c-0.402-3.803-1.774-4.754-5.515-4.963c-17.29-0.966-34.568-2.223-51.819-3.733c-2.114-0.185-4.04-2.511-6.053-3.845
		c1.44-2.122,2.526-5.669,4.379-6.13c10.809-2.69,21.757-4.907,32.754-6.695C1216.788,361.621,1220.001,363.248,1223.057,363.913z"
		/>
	<path d="M1187.684,958.077c26.353-11.276,52.838-22.244,79.238-33.411c3.525-1.491,6.945-3.294,10.221-5.273
		c0.952-0.575,1.231-2.262,1.819-3.439c-1.35-0.571-2.667-1.469-4.061-1.613c-1.176-0.121-2.459,0.584-3.666,1.007
		c-10.429,3.654-20.902,7.19-31.266,11.021c-28.551,10.554-56.948,21.49-83.804,35.986c-3.051,1.647-5.819,3.816-7.355,4.837
		c-3.545,4.736-3.003,7.965-0.617,11.075c1.831,2.388,4.259,2.466,5.248-0.209c1.674-4.529,5.473-6.051,9.153-7.873
		C1170.917,966.063,1179.155,961.727,1187.684,958.077z"/>
</g>
</svg>
