<?xml version="1.0" encoding="utf-8"?>
<!-- Generator: Adobe Illustrator 27.9.5, SVG Export Plug-In . SVG Version: 9.03 Build 54986)  -->
<svg version="1.1" id="Layer_1" xmlns="http://www.w3.org/2000/svg" xmlns:xlink="http://www.w3.org/1999/xlink" x="0px" y="0px"
	 viewBox="0 0 2000 2000" enable-background="new 0 0 2000 2000" xml:space="preserve">
<path d="M1589.955,468.455c-0.778,14.237-1.52,28.093-2.312,41.946c-0.101,1.778-0.13,3.681-0.798,5.272
	c-0.608,1.449-2.039,2.551-3.107,3.806c-1.196-1.171-3.152-2.172-3.456-3.541c-1.387-6.232-2.518-12.54-3.348-18.872
	c-1.213-9.254-2.09-18.551-3.13-28.01c-6.031,5.301-11.949,10.434-17.779,15.666c-2.052,1.841-4.491,3.562-6.432,0.964
	c-0.866-1.159,0.008-4.533,1.164-6.122c4.021-5.525,8.51-10.709,13.254-16.557c-5.911-0.8-11.172-1.377-16.382-2.26
	c-3.812-0.646-7.581-1.603-11.322-2.595c-2.586-0.686-5.367-2.17-4.21-5.131c0.698-1.786,3.503-3.688,5.506-3.861
	c8.615-0.745,17.284-0.848,25.932-1.237c1.745-0.078,3.479-0.381,6.113-0.683c-4.52-6.955-8.675-13.238-12.702-19.602
	c-1.501-2.373-4.869-5.108-1.851-7.748c2.84-2.484,5.483,0.751,7.652,2.629c4.729,4.095,9.294,8.38,14.461,13.074
	c0.109-1.573,0.226-2.622,0.248-3.673c0.425-19.844,0.818-39.688,1.288-59.531c0.046-1.922,0.139-4.039,0.964-5.688
	c0.752-1.505,2.857-3.704,3.778-3.451c1.602,0.438,3.606,2.36,3.924,3.96c0.809,4.068,0.95,8.298,1.054,12.47
	c0.456,18.209,0.8,36.421,1.197,54.632c0.034,1.577,0.162,3.152,0.321,6.126c2.42-3.224,4.13-5.368,5.695-7.612
	c4.01-5.748,7.934-11.556,11.947-17.302c0.936-1.34,1.88-2.865,3.203-3.694c1.422-0.891,3.295-1.062,4.971-1.548
	c0.147,1.859,0.901,3.951,0.301,5.524c-0.935,2.451-2.678,4.636-4.276,6.787c-5.485,7.385-11.055,14.706-17.081,22.698
	c2.924-0.133,5.228-0.294,7.533-0.333c12.983-0.217,25.965-0.411,38.949-0.589c0.888-0.012,1.994-0.133,2.625,0.319
	c1.426,1.021,3.825,2.61,3.64,3.528c-0.321,1.592-2.133,3.836-3.608,4.083c-7.488,1.255-15.06,2.036-22.619,2.829
	c-7.37,0.773-14.758,1.359-22.644,2.073c3.192,4.25,6.184,8.08,9,12.035c1.68,2.36,3.388,5.528,0.579,7.509
	c-1.595,1.125-5.251,0.659-7.264-0.422C1597.068,474.246,1593.709,471.222,1589.955,468.455z M1583.173,463.249
	c-0.331-0.331-0.662-0.662-0.994-0.993c-0.944,0.943-2.752,1.939-2.699,2.822c0.652,10.715,1.578,21.412,2.433,32.114
	c0.42-0.032,0.84-0.065,1.26-0.097C1583.173,485.814,1583.173,474.531,1583.173,463.249z M1600.284,468.689
	c-3.146-3.621-6.292-7.243-9.745-11.217C1588.993,466.236,1587.83,463.345,1600.284,468.689z M1570.928,436.943
	c-0.469,0.35-0.938,0.701-1.407,1.051c1.719,2.656,3.346,5.38,5.233,7.911c0.38,0.51,1.747,0.286,2.658,0.399
	c-0.12-0.787,0.025-1.787-0.406-2.325C1575.069,441.563,1572.969,439.277,1570.928,436.943z"/>
<path d="M399.86,918.163c5.387-5.611,10.731-11.265,16.191-16.804c1.461-1.483,3.172-2.799,4.977-3.826
	c0.762-0.433,2.466-0.31,3.017,0.26c0.719,0.744,1.289,2.433,0.92,3.277c-1.089,2.488-2.47,4.911-4.098,7.089
	c-5.52,7.383-11.195,14.65-17.26,22.546c5.418,0,10.311,0.152,15.192-0.031c11.011-0.413,22.017-0.994,33.025-1.498
	c0.971-0.044,2.098-0.346,2.883,0.032c1.308,0.63,2.399,1.714,3.581,2.606c-0.968,1.11-1.79,2.984-2.929,3.201
	c-6.183,1.177-12.425,2.104-18.681,2.82c-11.05,1.263-22.124,2.311-33.54,3.485c5.167,5.404,10.126,10.581,15.071,15.772
	c0.893,0.938,2.034,1.809,2.498,2.941c0.483,1.179,0.862,3.262,0.249,3.828c-0.935,0.865-3.311,1.532-4.12,0.952
	c-5.252-3.765-10.276-7.853-15.276-11.955c-0.497-0.408-0.246-1.647-0.502-2.449c-0.363-1.141-0.874-2.236-1.982-2.91
	c0,9.846,0.021,19.691-0.005,29.537c-0.03,11.346-0.027,22.693-0.214,34.037c-0.04,2.429,0.332,5.907-3.268,6.07
	c-3.303,0.15-3.715-2.842-4.117-5.54c-2.501-16.793-5.078-33.575-7.645-50.358c-0.281-1.837-0.663-3.658-1.143-6.281
	c-4.084,4.578-7.441,8.719-11.241,12.402c-1.391,1.348-3.976,2.396-5.741,2.074c-1.044-0.191-2.12-3.307-2.193-5.148
	c-0.262-6.604-0.103-13.224-0.103-19.577c-7.769,0-15.316-0.003-22.864,0.003c-1.459,0.001-3.025,0.386-4.351-0.023
	c-1.672-0.516-3.149-1.666-4.71-2.542c1.103-1.603,1.923-4.235,3.357-4.628c5.74-1.574,11.649-2.581,17.537-3.541
	c3.487-0.568,7.052-0.656,11.888-1.072c-2.309-7.524-4.533-14.485-6.553-21.503c-0.732-2.546-3.911-5.784-0.203-7.589
	c1.586-0.772,5.258,1.304,7.209,2.983c6.093,5.244,11.817,10.916,17.684,16.422c0.469-0.101,0.938-0.202,1.407-0.302
	c0-4.775-0.326-9.576,0.058-14.32c1.461-18.076,3.13-36.136,4.778-54.197c0.257-2.812,0.858-6.025,4.417-5.924
	c3.906,0.111,4.118,3.567,4.18,6.534c0.402,19.289,0.738,38.58,1.107,57.87c0.03,1.556,0.148,3.111,0.226,4.666
	C399.003,917.757,399.431,917.96,399.86,918.163z M364.778,915.033c1.6,5.959,3.2,11.918,4.776,17.789c3.624,0,6.81,0,10.803,0
	C378.291,923.702,369.55,921.052,364.778,915.033z M370.293,958.187c3.705-5.114,11.503-7.253,10.888-15.448
	c-4.031,0.416-7.489,0.773-10.888,1.124C370.293,948.977,370.293,953.582,370.293,958.187z M391.882,946.084
	c-0.863,0.026-1.726,0.052-2.59,0.079c-1.659,9.643,2.247,19.109,2.59,28.187C391.882,965.249,391.882,955.667,391.882,946.084z
	 M389.991,926.62c0.307,0.009,0.613,0.017,0.92,0.026c0-5.107,0-10.214,0-15.32c-0.307-0.007-0.613-0.014-0.92-0.021
	C389.991,916.41,389.991,921.515,389.991,926.62z"/>
<path d="M1510.624,1347.309c6.479-6.748,12.907-13.548,19.473-20.211c1.757-1.783,3.815-3.366,5.986-4.601
	c0.916-0.521,2.966-0.373,3.629,0.313c0.865,0.895,1.551,2.927,1.107,3.941c-1.309,2.993-2.971,5.907-4.929,8.526
	c-6.639,8.88-13.465,17.62-20.759,27.117c6.516,0,12.402,0.183,18.272-0.037c13.244-0.496,26.48-1.195,39.72-1.802
	c1.168-0.053,2.524-0.416,3.468,0.039c1.574,0.758,2.885,2.061,4.307,3.135c-1.164,1.334-2.153,3.589-3.522,3.85
	c-7.436,1.416-14.944,2.531-22.468,3.391c-13.29,1.519-26.609,2.78-40.339,4.192c6.214,6.5,12.179,12.726,18.126,18.969
	c1.074,1.128,2.446,2.176,3.004,3.538c0.581,1.418,1.036,3.923,0.3,4.604c-1.125,1.04-3.982,1.842-4.955,1.144
	c-6.317-4.528-12.359-9.445-18.373-14.378c-0.598-0.49-0.296-1.98-0.604-2.946c-0.437-1.373-1.052-2.689-2.384-3.5
	c0,11.842,0.025,23.683-0.007,35.525c-0.036,13.646-0.033,27.294-0.257,40.937c-0.048,2.921,0.4,7.104-3.931,7.3
	c-3.973,0.18-4.469-3.418-4.952-6.663c-3.009-20.198-6.107-40.381-9.195-60.567c-0.338-2.209-0.797-4.4-1.375-7.554
	c-4.912,5.506-8.949,10.487-13.52,14.917c-1.673,1.622-4.782,2.882-6.905,2.494c-1.255-0.229-2.55-3.978-2.638-6.191
	c-0.315-7.943-0.124-15.905-0.124-23.546c-9.344,0-18.422-0.004-27.499,0.004c-1.755,0.002-3.638,0.465-5.233-0.027
	c-2.011-0.621-3.787-2.003-5.665-3.057c1.326-1.928,2.313-5.094,4.038-5.567c6.903-1.893,14.01-3.104,21.092-4.259
	c4.194-0.684,8.482-0.789,14.298-1.289c-2.777-9.05-5.452-17.421-7.881-25.863c-0.881-3.062-4.704-6.956-0.244-9.128
	c1.908-0.929,6.324,1.568,8.671,3.588c7.328,6.307,14.213,13.128,21.269,19.751c0.564-0.121,1.128-0.242,1.692-0.364
	c0-5.743-0.392-11.518,0.069-17.224c1.758-21.741,3.765-43.462,5.747-65.184c0.309-3.382,1.032-7.246,5.313-7.125
	c4.698,0.134,4.953,4.291,5.027,7.858c0.484,23.2,0.887,46.401,1.331,69.601c0.036,1.872,0.179,3.741,0.272,5.612
	C1509.594,1346.821,1510.109,1347.065,1510.624,1347.309z M1468.43,1343.545c1.924,7.167,3.849,14.334,5.745,21.395
	c4.359,0,8.191,0,12.994,0C1484.683,1353.971,1474.17,1350.785,1468.43,1343.545z M1475.064,1395.448
	c4.456-6.151,13.835-8.724,13.095-18.58c-4.848,0.5-9.007,0.93-13.095,1.352C1475.064,1384.37,1475.064,1389.909,1475.064,1395.448z
	 M1501.029,1380.891c-1.038,0.031-2.077,0.063-3.115,0.094c-1.995,11.598,2.702,22.983,3.115,33.901
	C1501.029,1403.941,1501.029,1392.416,1501.029,1380.891z M1498.755,1357.481c0.369,0.01,0.738,0.021,1.107,0.031
	c0-6.142,0-12.284,0-18.426c-0.369-0.008-0.738-0.017-1.107-0.025C1498.755,1345.201,1498.755,1351.341,1498.755,1357.481z"/>
<g>
	<path d="M1610.136,846.392c-63.089-21.366-126.093-42.993-189.375-63.777c-41.341-13.578-83.175-25.626-126.813-29.511
		c-15.236-1.356-30.586-1.807-45.183,3.776c-20.703,7.918-37.128,21.877-51.397,38.451c-2.333,2.709-3.091,6.748-4.706,10.11
		c-1.428,2.972-2.451,6.439-4.67,8.677c-7.728,7.791-16.42,14.669-23.779,22.773c-11.431,12.588-22.537,25.537-32.87,39.031
		c-6.556,8.56-5.395,16.215,1.381,24.715c1.94,2.434,3.913,4.858,6.06,7.107c3.244,3.399,3.37,6.494,0.461,10.389
		c-6.665,8.924-12.711,18.314-19.458,27.174c-6.443,8.462-13.102,16.815-20.302,24.631c-9.32,10.117-9.844,9.921-16.963-1.525
		c-9.397-15.112-19.91-29.216-33.786-40.626c-26.613-21.882-56.739-37.528-88.498-50.318c-3.144-1.266-6.586-2.198-8.624,1.63
		c-2.07,3.89,0.742,6.052,3.578,7.959c7.477,5.029,14.907,10.134,22.467,15.035c19.601,12.707,33.477,30.262,42.821,51.383
		c10.833,24.486,18.099,50.153,23.599,76.314c1.867,8.879,2.856,17.885,1.032,27.079c-2.068-4.627-3.83-9.316-5-14.147
		c-7.542-31.183-19.425-60.395-38.235-86.628c-12.906-18-25.84-35.961-42.186-51.077c-18.104-16.743-39.433-24.754-64.212-22.844
		c-7.496,0.578-14.978,1.345-23.842,2.15c3.855-4.442,6.951-8.199,10.245-11.773c25.989-28.202,52.491-55.948,77.919-84.646
		c39.018-44.038,76.859-89.079,112.431-136.002c30.255-39.909,81.667-65.155,139.714-47.685
		c40.768,12.269,71.388,34.321,83.312,77.295c1.46,5.259,4.297,10.324,7.399,14.861c1.586,2.321,5.189,4.574,7.852,4.542
		c4.007-0.049,5.353-4.235,5.174-7.735c-0.515-10.095-0.322-20.445-2.62-30.172c-2.56-10.836-0.526-19.156,6.036-27.975
		c10.932-14.691,21.283-29.888,27.02-47.673c1.865-5.781,1.825-10.95-1.721-15.839c-12.375-17.065-27.078-31.463-46.193-41.036
		c-10.398-5.206-19.769-5.001-29.292,2.225c-17.358,13.172-35.06,25.889-52.609,38.808c-0.656,0.483-1.296,1.022-1.824,1.637
		c-2.894,3.377-2.017,7.459,2.115,9.174c2.099,0.871,4.383,1.3,6.587,1.914c22.13,6.17,41.004,17.878,57.422,33.76
		c2.082,2.015,4.323,4.076,7.249,1.896c3.047-2.271,2.085-5.15,0.356-7.842c-3.805-5.925-7.417-11.99-11.51-17.709
		c-4.054-5.664-6.821-5.702-10.832-1.589c-12.907-6.115-25.541-12.1-38.586-18.28c17.041-11.963,34.305-24.099,51.591-36.202
		c3.438-2.407,7.008-2.036,10.735-0.482c19.593,8.173,33.873,22.629,46.244,39.251c1.144,1.536,1.555,4.602,0.843,6.368
		c-3.358,8.322-6.638,16.774-11.058,24.546c-5.902,10.38-12.619,20.323-19.404,30.165c-3.703,5.371-4.9,10.465-3.254,16.991
		c2.115,8.39,2.943,17.103,4.325,25.677c-0.505,0.111-1.01,0.223-1.515,0.334c-1.047-3.018-2.191-6.008-3.127-9.06
		c-6.632-21.608-18.237-39.656-36.633-53.301c-17.636-13.081-37.533-20.266-58.765-24.642c-19.278-3.974-38.572-5.632-57.953-1.177
		c-33.738,7.755-61.163,25.68-82.092,53.033c-32.991,43.118-68.005,84.545-104.141,125c-27.07,30.307-55.357,59.525-82.924,89.391
		c-7.101,7.693-13.755,15.831-20.103,24.156c-1.432,1.878-1.789,5.988-0.676,7.964c0.954,1.694,4.69,1.916,7.254,2.555
		c0.871,0.217,1.914-0.369,2.889-0.437c14.18-0.997,28.447-3.415,42.524-2.594c19.421,1.132,34.754,12.07,47.527,26.119
		c32.903,36.189,59.874,75.802,70.905,124.541c1.61,7.112,4.583,13.968,7.446,20.722c1.576,3.719,4.602,6.646,9.235,5.902
		c4.699-0.756,6.424-4.702,6.783-8.613c0.61-6.645,0.986-13.424,0.37-20.047c-2.063-22.167-9.342-43.115-15.809-64.237
		c-8.12-26.523-20.047-50.847-40.442-70.311c-0.088-0.084,0.128-0.485,0.321-1.14c6.664,4.04,13.317,7.897,19.793,12.032
		c20.349,12.994,38.76,28.051,51.616,48.974c2.914,4.743,5.919,9.451,9.191,13.949c6.028,8.284,12.118,9.207,19.946,2.828
		c4.044-3.294,8.028-6.878,11.212-10.974c11.256-14.482,22.229-29.187,33.168-43.912c10.732-14.445,10.585-16.463-1.092-30.444
		c-6.909-8.272-7.604-10.911-0.591-19.239c11.801-14.015,24.314-27.446,36.844-40.827c5.925-6.327,12.832-11.733,18.783-18.037
		c2.436-2.58,3.623-6.387,5.197-9.722c1.697-3.596,2.281-8.231,4.926-10.773c8.477-8.147,17.444-15.838,26.68-23.124
		c7.798-6.151,16.913-10.004,26.756-11.741c16.375-2.889,32.704-1.194,48.93,1.217c28.876,4.29,57.13,11.536,84.771,20.676
		c71.02,23.483,141.808,47.667,212.682,71.594c1.474,0.497,2.853,1.273,5.202,2.338c-4.432,5.31-8.014,10.423-12.394,14.721
		c-36.026,35.349-72.189,70.561-108.362,105.76c-2.336,2.273-5.034,4.196-7.676,6.128c-5.878,4.297-12.285,5.406-18.979,2.25
		c-6.953-3.279-13.924-6.583-20.589-10.399c-23.795-13.628-48.345-25.562-74.505-33.956c-42.261-13.56-85.906-21.257-129.158-30.688
		c-20.223-4.409-40.034-10.731-59.971-16.402c-3.453-0.982-6.599-3.047-9.886-4.611c0.131-0.481,0.26-0.961,0.39-1.442
		c5.474,0.26,10.994,0.17,16.413,0.866c6.967,0.895,13.84,2.5,20.779,3.639c3.219,0.529,6.481-0.381,6.784-3.944
		c0.397-4.673,3.58-6.682,6.602-9.138c12.836-10.431,25.753-20.765,38.422-31.396c6.2-5.202,6.021-5.467,14.011-1.667
		c-4.932,5.613-9.778,11.12-14.615,16.635c-3.455,3.94-7.205,7.668-10.27,11.892c-3.911,5.389-2.583,10.462,3.378,13.425
		c3.483,1.73,7.264,3.001,11.041,3.978c20.57,5.325,41.237,10.282,61.761,15.78c20.432,5.474,38.924,15.447,57.115,25.929
		c12.701,7.319,24.612,8.689,35.384-3.333c0.099-0.111,0.294-0.137,0.749-0.335c4.057,3.994,8.164,1.812,12.365-0.296
		c13.303-6.673,26.53-13.522,40.056-19.713c3.035-1.389,7.354-1.15,10.761-0.328c10.323,2.489,20.449,5.796,30.757,8.362
		c1.747,0.435,4.946-0.665,5.778-2.064c0.839-1.412,0.337-4.904-0.904-6.063c-9.287-8.676-20.124-15.09-33.162-12.549
		c-10.099,1.969-17.84-2.864-27.285-5.18c9.668-10.296,18.755-19.934,27.781-29.629c1.437-1.544,3.167-3.181,3.715-5.077
		c0.494-1.708,0.2-4.574-0.936-5.566c-1.165-1.017-3.915-0.855-5.709-0.324c-1.585,0.47-2.896,2.07-4.178,3.324
		c-10.074,9.855-20.219,19.644-30.09,29.699c-2.509,2.556-4.508,3.27-8.041,2.153c-47.363-14.968-94.782-29.757-142.18-44.611
		c-1.603-0.502-3.137-1.224-5.115-2.007c1.796-2.262,3.194-4.058,4.629-5.825c11.57-14.251,23.163-28.482,34.708-42.754
		c1.954-2.415,4.243-4.773,5.379-7.564c0.858-2.109,1.051-5.605-0.163-7.126c-1.229-1.541-4.664-2.17-6.924-1.825
		c-2.797,0.428-5.654,1.884-8.002,3.569c-8.631,6.196-17.547,12.129-25.451,19.175c-10.875,9.695-21.031,20.212-31.265,30.604
		c-2.576,2.616-4.871,3.074-8.189,2.002c-5.126-1.656-10.35-3.04-15.593-4.286c-4.054-0.964-8.084-0.72-10.222,3.544
		c-0.779,1.553-1.079,4.157-0.271,5.454c0.706,1.132,3.251,1.265,5.029,1.553c5.463,0.885,10.948,1.634,16.425,2.435
		c0.138,0.636,0.276,1.272,0.415,1.908c-10.519,8.551-21.049,17.087-31.549,25.659c-4.435,3.621-9.248,6.92-13.043,11.128
		c-2.352,2.608-4.042,3.268-7.356,2.534c-11.541-2.558-23.205-4.513-35.047-2.2c-4.423,0.864-8.801,2.391-9.79,7.634
		c-0.961,5.093,2.363,8.135,6.28,10.065c7.906,3.894,15.726,8.571,24.144,10.713c30.564,7.774,61.385,14.53,92.062,21.87
		c27.343,6.543,54.794,12.726,81.883,20.207c31.15,8.602,59.449,23.883,87.549,39.562c24.354,13.589,33.272,12.635,53.475-6.385
		c33.53-31.566,66.546-63.68,99.623-95.723c5.869-5.685,11.287-11.906,16.382-18.303
		C1627.281,859.006,1625,851.425,1610.136,846.392z M1449.193,904.474c0.615-0.685,2.062-1.21,2.915-0.991
		c3.226,0.829,6.365,1.995,10.457,3.337c-9.057,4.587-17.195,8.709-25.333,12.831c-0.205-0.221-0.41-0.443-0.615-0.665
		C1440.791,914.132,1444.918,909.237,1449.193,904.474z M1433.687,897.531c1.04,0.32,2.021,0.831,4.257,1.765
		c-10.99,11.055-21.26,21.758-32.062,31.893c-1.848,1.733-6.204,1.954-8.994,1.252c-4.196-1.056-8.278-3.151-11.982-5.482
		c-28.663-18.032-60.325-27.917-93.123-34.91c-11.131-2.373-22.136-5.343-33.977-8.229c1.297-1.819,1.908-2.867,2.7-3.754
		c7.519-8.426,15.152-16.753,22.553-25.282c1.929-2.224,3.598-2.555,6.339-1.706
		C1337.474,867.953,1385.586,882.723,1433.687,897.531z M1308.426,803.165c0.537,0.455,1.074,0.911,1.611,1.367
		c-0.707,1.032-1.351,2.115-2.131,3.09c-7.566,9.448-15.401,18.695-22.625,28.397c-3.202,4.3-6.249,4.968-9.13,3.21
		C1286.848,827.276,1297.636,815.22,1308.426,803.165z"/>
	<path d="M1150.243,941.611c-24.338,32.527-48.552,65.147-72.628,97.868c-10.189,13.847-19.755,28.153-29.988,41.966
		c-5.859,7.908-13.782,13.418-23.089,16.904c-8.096,3.032-8.845,3.109-13.572-4.291c-8.815-13.8-17.339-27.786-25.985-41.693
		c-12.024-19.342-27.356-35.555-46.288-48.217c-3.879-2.595-8.347-4.562-12.818-5.901c-1.97-0.59-5.614,0.425-6.698,1.973
		c-1.125,1.605-0.831,5.137,0.211,7.102c1.484,2.799,4.093,5.062,6.433,7.335c9.165,8.904,18.957,17.229,27.507,26.682
		c14.098,15.586,27.548,32.025,33.678,52.55c9.577,32.067,9.05,64.262-1.669,96.139c-5.922,17.613-12.617,34.827-24.737,49.323
		c-7.818,9.349-17.595,14.898-30.013,13.73c-15.628-1.47-31.328-2.853-46.756-5.615c-22.357-4.002-43.064-13.252-63.717-22.398
		c-2.932-1.298-5.839-2.65-9.209-4.182c8.806-9.062,17.134-17.609,25.426-26.191c1.245-1.289,2.778-2.58,3.34-4.167
		c0.51-1.44,0.491-4.049-0.4-4.764c-1.208-0.97-3.602-1.123-5.243-0.694c-1.402,0.367-2.465,2.045-3.668,3.152
		c-5.457,5.021-10.911,10.045-16.998,15.649c3.982-7.897,7.848-14.7,10.894-21.854c2.921-6.862,1.841-11.216-4.232-15.517
		c-9.607-6.804-19.48-13.292-29.631-19.247c-7.355-4.314-12.582-3.516-18.671,2.674c-6.066,6.166-11.534,12.958-16.902,19.76
		c-4.539,5.753-8.56,11.914-13.108,18.312c-24.968-13.637-50.415-26.219-68.423-48.873c-6.756-8.499-12.565-18.109-17.005-28.019
		c-9.634-21.503-2.639-39.384,19.081-48.656c9.192-3.924,19.343-6.154,29.286-7.654c23.761-3.585,46.975,0.342,69.825,6.984
		c31.362,9.116,59.752,23.226,82.128,47.856c16.782,18.473,28.231,40.065,37.935,62.772c6.43,15.048,12.855,30.102,19.565,45.025
		c1.651,3.672,4.009,7.214,6.74,10.171c4.638,5.02,10.725,3.737,12.382-2.835c1.248-4.952,1.925-10.52,0.978-15.453
		c-1.809-9.421-4.066-18.955-7.714-27.789c-12.173-29.477-29.554-56.161-46.106-83.263c-17.842-29.213-42.442-51.327-71.847-68.462
		c-20.298-11.828-41.886-19.322-65.512-19.754c-11.78-0.215-23.576,0.523-35.366,0.746c-5.606,0.106-11.216,0.018-16.824,0.018
		c-0.095-0.443-0.191-0.888-0.286-1.332c1.88-1.488,3.579-3.327,5.672-4.4c7.706-3.949,15.307-8.263,23.369-11.333
		c43.515-16.57,88.62-15.486,133.901-11.172c15.328,1.46,29.498,7.155,43.425,13.464c4.293,1.945,8.749,3.816,13.328,4.774
		c6.973,1.46,11.798-4.006,9.158-10.623c-1.829-4.586-5.058-8.688-8.073-12.696c-1.613-2.144-4.097-3.632-7.008-6.117
		c7.062-2.238,12.724-4.032,19.047-6.035c0,1.937-0.052,2.881,0.008,3.817c0.542,8.536,6.078,12.189,13.766,8.575
		c9.432-4.435,16.752-11.483,22.011-20.437c3.331-5.669,2.423-11.051-3.119-14.653c-4.818-3.131-10.326-5.757-15.892-7.065
		c-11.688-2.747-23.047,1.141-34.428,3.333c-15.06,2.9-24.132-1.668-30.582-15.508c-1.382-2.966-2.594-6.041-4.294-8.814
		c-0.723-1.178-2.502-1.708-3.801-2.531c-0.773,1.301-1.747,2.528-2.25,3.926c-0.366,1.018-0.194,2.267-0.117,3.402
		c1.352,19.849,19.064,33.171,39.522,29.599c6.609-1.155,13.102-2.997,19.727-4.021c8.655-1.338,17.414-2.04,24.989,3.766
		c1.1,0.843,2.307,3.374,1.843,4.143c-4.11,6.803-9.919,11.849-17.096,15.975c-1.418-11.044-3.709-14.072-11.474-12.486
		c-8.247,1.685-16.362,4.616-24.096,8.003c-5.426,2.376-5.789,7.756-1.661,12.241c2.879,3.129,6.152,5.893,9.112,8.953
		c1.217,1.258,2.072,2.866,3.091,4.315c-4.799-1.222-8.804-3.075-12.848-4.841c-13.856-6.051-28.125-10.678-43.245-12.264
		c-25.992-2.726-52.022-2.931-78.051-0.741c-25.526,2.148-50.102,8.2-73.068,19.698c-6.495,3.252-12.58,7.673-18.029,12.49
		c-2.189,1.934-3.668,6.932-2.715,9.518c0.941,2.553,5.225,5.062,8.289,5.407c7.439,0.84,15.031,0.715,22.542,0.436
		c17.861-0.666,35.799-1.981,53.338,2.432c36.292,9.133,66.563,28.878,90.513,56.946c26.591,31.162,46.088,67.173,63.616,104.091
		c3.604,7.59,5.596,16.052,7.495,24.304c0.994,4.32,0.176,9.058,0.176,13.607c-0.414,0.095-0.828,0.192-1.242,0.287
		c-1.784-3.441-3.817-6.777-5.309-10.34c-6.322-15.094-12.403-30.288-18.721-45.382c-11.039-26.372-25.113-50.763-46.081-70.706
		c-37.495-35.664-105.824-57.042-156.941-48.854c-14.193,2.273-27.904,6.035-39.445,15.199
		c-13.433,10.667-19.021,24.646-15.249,41.355c5.361,23.745,19.226,42.504,37.304,58.145c15.319,13.254,32.877,23.242,50.797,32.556
		c1.538,0.799,3.057,1.632,4.821,2.575c-1.169,2.014-2.117,3.525-2.949,5.097c-8.943,16.919-17.901,33.829-26.751,50.796
		c-1.038,1.99-2.345,4.501-1.92,6.414c0.462,2.081,2.457,4.587,4.405,5.383c2.536,1.036,3.838-1.16,4.355-3.841
		c0.457-2.366,1.449-4.688,2.535-6.864c6.353-12.734,12.699-25.474,19.27-38.095c2.627-5.047,5.823-9.797,8.949-14.997
		c15.236,7.267,30.09,14.351,45.894,21.89c-5.099,5.326-9.525,10.319-14.341,14.901c-9.379,8.922-19.046,17.542-28.423,26.467
		c-1.669,1.589-3.956,4.526-3.462,6.006c1.346,4.035-1.174,5.613-3.216,7.795c-2.799,2.991-5.622,5.966-8.288,9.073
		c-5.034,5.866-7.417,6.077-13.297,0.937c-7.14-6.24-16.449-8.078-23.149-4.486c-3.349,1.796-6.083,4.319-5.546,8.453
		c0.58,4.463,4.35,5.412,8.034,5.784c5.214,0.526,10.48,0.566,15.679,1.19c1.71,0.205,4.055,1.152,4.792,2.487
		c6.699,12.127,9.063,24.991,4.181,38.281c-4.365,11.882-15.299,15.885-26.779,10.474c-15.809-7.451-26.529-27.608-23.836-44.853
		c1.83-11.716,7.506-20.872,18.111-26.561c7.334-3.934,17.146-4.404,21.722,3.85c0.156,0.281,0.844,0.267,2.99,0.869
		c-1.481-3.527-1.843-6.945-3.695-8.255c-3.704-2.62-8.121-5.431-12.43-5.768c-11.818-0.925-20.632,5.387-27.414,14.48
		c-15.939,21.371-9.32,54.406,14.284,69.936c4.916,3.234,10.859,5.824,16.627,6.665c14.848,2.164,27.11-8.509,30.363-25.131
		c2.386-12.196,0.114-23.76-4.502-34.981c2.794-1.863,5.477-3.183,7.558-5.144c3.811-3.589,7.126-7.7,10.893-11.339
		c16.856-16.285,33.832-32.445,50.691-48.727c6.342-6.124,6.315-6.356,14.223-2.638c34.693,16.311,70.718,27.097,109.292,29.651
		c21.363,1.414,37.738-4.878,49.859-22.653c12.459-18.272,20.262-38.532,25.496-59.743c8.239-33.39,7.662-66.489-5.604-98.765
		c-0.118-0.287,0.116-0.72,0.271-1.538c1.065,1.615,1.861,2.84,2.675,4.053c4.293,6.389,8.372,12.935,12.945,19.117
		c4.695,6.347,8.282,7.328,15.806,5.057c12.402-3.743,23.105-10.303,30.998-20.628c8.149-10.66,15.72-21.763,23.523-32.688
		c27.799-38.92,55.596-77.843,83.352-116.793c1.029-1.443,1.633-3.188,2.435-4.792c-0.642-0.442-1.284-0.884-1.926-1.325
		C1157.556,934.048,1153.369,937.432,1150.243,941.611z M945.646,1020.06c13.649,10.696,25.204,24.072,33.977,39.061
		C968.386,1046.202,956.801,1032.883,945.646,1020.06z M796.535,1214.492c-16.18-7.791-31.31-15.077-46.906-22.586
		c8.785-12.762,16.917-25.397,27.875-35.905c3.306-3.17,6.675-3.075,10.245-0.857c8.481,5.267,16.871,10.683,25.389,15.889
		c4.488,2.743,5.517,6.265,2.9,10.711C809.673,1192.56,803.202,1203.314,796.535,1214.492z"/>
	<path d="M639.497,723.709c5.08,2.203,10.403,4.01,15.778,5.349c68.681,17.109,135.704,39.332,201.65,64.936
		c10.501,4.077,21.213,7.633,31.923,11.137c6.163,2.016,11.598-0.087,16.303-4.26c2.569-2.279,5.074-4.632,7.607-6.952
		c-0.431,2.541-2.043,4.367-2.504,6.448c-0.447,2.014,0.291,4.29,0.509,6.451c1.921-0.731,4.566-0.898,5.647-2.284
		c6.64-8.527,12.923-17.331,19.331-26.038c20.098-27.314,40.176-54.643,60.329-81.917c2.429-3.287,5.662-6.035,7.742-9.5
		c0.974-1.622,0.086-4.361,0.041-6.594c-2.219,0.181-4.515,0.079-6.624,0.659c-1.069,0.294-1.834,1.788-2.68,2.787
		c-5.503,6.505-10.978,13.034-16.485,19.536c-9.712,11.467-19.441,22.92-28.755,33.897c-23.976-13.494-49.62-22.087-74.215-33.671
		c0.658-0.955,1.216-1.727,1.735-2.526c8.02-12.362,16.062-24.711,24.029-37.108c1.678-2.61,2.821-5.571-0.36-7.84
		c-3.287-2.344-5.561,0.174-7.485,2.399c-3.215,3.715-6.29,7.558-9.27,11.464c-7.144,9.36-14.2,18.788-21.242,28.124
		c-29.36-12.05-58.486-24.004-88.169-36.188c1.218-2.669,2.323-5.165,3.488-7.633c5.641-11.956,11.387-23.864,16.883-35.885
		c1.291-2.823,1.208-6.644-2.048-7.578c-2.021-0.58-5.929,1.094-7.182,2.967c-3.797,5.671-7.28,11.701-9.836,18.018
		c-3.582,8.849-6.218,18.081-9.356,27.438c-1.257-0.367-2.809-0.784-4.338-1.272c-12.768-4.081-25.467-8.396-38.325-12.167
		c-6.08-1.783-12.43-2.819-18.732-3.557c-1.673-0.195-4.456,1.589-5.173,3.171c-0.55,1.213,0.968,3.889,2.257,5.269
		c1.387,1.485,3.485,2.453,5.438,3.236c8.651,3.471,17.321,6.901,26.062,10.14c8.392,3.109,16.878,5.963,25.785,9.093
		c-7.798,12.437-15.291,24.341-22.729,36.28c-1.903,3.054-4.051,6.062-5.277,9.389c-0.624,1.695-0.062,4.605,1.126,5.909
		c0.759,0.834,4.112,0.372,5.467-0.634c2.446-1.816,4.365-4.394,6.329-6.797c7.985-9.768,15.958-19.548,23.832-29.405
		c6.724-8.416,9.871-9.201,20.144-4.628c21.35,9.502,42.836,18.697,64.564,28.148c-10.272,14.429-20.725,29.258-31.388,43.936
		c-1.6,2.203-3.365,4.465-0.908,6.241c1.584,1.145,5.119,1.264,6.782,0.233c2.503-1.552,4.33-4.373,6.102-6.896
		c9.415-13.407,18.702-26.904,28.08-40.336c2.599-3.723,6.017-6.35,10.712-4.318c21.016,9.098,42.008,18.258,62.885,27.667
		c8.63,3.889,9.197,5.087,3.428,12.258c-12.108,15.052-24.853,29.595-37.442,44.257c-3.539,4.121-8.303,4.268-13.11,2.806
		c-4.846-1.473-9.671-3.072-14.379-4.936c-57.821-22.893-116.205-44.153-176.103-61.05c-16.999-4.796-34.047-9.429-50.963-14.503
		c-6.426-1.927-6.934-3.241-3.78-9.254c6.537-12.464,13.279-24.836,20.379-36.986c16.911-28.94,36.664-55.854,58.578-81.211
		c5.797-6.709,12.706-10.194,21.624-8.979c5.829,0.795,11.737,1.368,17.425,2.782c31.065,7.719,60.576,19.932,90.364,31.387
		c45.349,17.44,90.831,34.536,136.288,51.694c4.723,1.783,9.628,3.128,14.527,4.367c1.086,0.275,2.502-0.76,3.767-1.192
		c-0.609-1.059-0.965-2.523-1.88-3.097c-2.061-1.293-4.354-2.255-6.63-3.158c-9.726-3.859-19.509-7.573-29.216-11.477
		c-49.503-19.905-98.895-40.09-148.523-59.679c-22.668-8.947-45.635-17.214-69.911-21.056c-14.428-2.283-26.632,1.078-35.957,12.829
		c-1.018,1.282-2.137,2.484-3.207,3.725c-26.558,30.784-48.703,64.581-68.169,100.182c-3.525,6.447-6.779,13.109-9.417,19.957
		C629.77,715.234,632.138,720.517,639.497,723.709z"/>
	<path d="M717.968,1427.135c-3.679-2.993-7.654-5.621-11.486-8.427c-1.145-0.839-2.26-1.718-4.367-3.324
		c4.117,0.691,6.965,1.346,9.851,1.61c3.895,0.356,7.708-0.108,9.737-4.081c2.031-3.974-0.185-7.081-2.933-9.532
		c-3.778-3.369-7.918-6.329-11.889-9.483c-8.96-7.115-18.495-13.629-26.739-21.495c-14.998-14.312-27.674-30.683-37.786-48.814
		c-4.236-7.596-12.201-13.061-12.574-23.019c-0.13-3.468-4.509-4.145-6.601-1.018c-1.855,2.773-3.183,6.117-3.901,9.393
		c-2.995,13.688-1.434,26.882,6.487,38.628c7.683,11.393,15.167,23.121,24.313,33.284c15.82,17.576,34.913,31.587,54.077,45.362
		c4.32,3.105,8.565,6.315,13.907,10.263c-3.762,1.916-6.175,3.891-8.852,4.357c-6.086,1.059-12.378,2.326-18.452,1.838
		c-33.989-2.733-65.436-13.357-92.825-33.801c-13.45-10.041-25.237-22.299-37.888-33.428c-4.882-4.294-9.717-8.85-15.28-12.065
		c-2.463-1.423-7.687-1.026-9.833,0.749c-2.383,1.972-3.919,6.588-3.582,9.819c0.436,4.185,2.474,8.563,4.918,12.1
		c4.92,7.12,10.006,14.29,16.032,20.453c32.52,33.263,69.875,58.671,115.977,69.75c-1.366,0.608-2.737,1.129-4.086,1.079
		c-10.298-0.377-20.693-0.102-30.869-1.456c-37.76-5.029-72.548-18.714-104.232-39.473c-22.849-14.971-44.461-31.825-66.712-47.716
		c-4.641-3.314-9.42-6.631-14.574-8.985c-7.266-3.319-12.79,0.73-11.575,8.622c0.856,5.56,2.828,11.13,5.286,16.221
		c4.602,9.535,9.918,18.725,14.878,27.948c-4.219-0.554-5.45,0.438-4.002,4.537c2.224,6.296,4.467,12.737,7.829,18.454
		c21.063,35.825,47.183,67.372,80.869,92.06c27.96,20.492,58.82,34.139,93.874,36.56c5.495,0.379,11.137-0.126,16.585-1.009
		c1.862-0.302,4.273-2.81,4.687-4.693c0.335-1.525-1.678-3.893-3.155-5.386c-1.188-1.201-3.119-1.684-4.745-2.433
		c-9.046-4.171-18.144-8.232-27.142-12.504c-51.062-24.248-96.215-56.463-133.457-99.286
		c-15.666-18.014-29.334-37.357-38.868-59.384c-1.354-3.129-2.324-6.424-3.472-9.642c3.858,1.366,6.747,3.193,9.465,5.245
		c13.992,10.566,27.656,21.587,41.958,31.713c34.995,24.777,72.261,44.952,114.651,54.147c19.12,4.148,38.374,7.337,57.981,4.4
		c5.736-0.86,11.4-2.814,16.787-5.02c1.709-0.7,3.506-3.984,3.272-5.833c-0.227-1.792-2.831-3.539-4.736-4.773
		c-1.272-0.824-3.148-0.721-4.754-1.023c-4.822-0.907-9.719-1.524-14.456-2.757c-40.818-10.635-74.25-33.642-103.668-62.948
		c-7.127-7.101-12.793-15.695-18.894-23.781c-1.453-1.926-1.954-4.569-2.893-6.882c0.378-0.275,0.756-0.55,1.134-0.824
		c1.823,1.241,3.816,2.293,5.434,3.761c3.639,3.301,7.189,6.714,10.605,10.244c33.841,34.981,74.45,56.799,122.974,63.081
		c11.731,1.519,23.58,2.265,34.867-2.465C725.992,1441.5,726.999,1434.48,717.968,1427.135z M626.205,1319.905
		c1.876,7.008,3.751,14.018,5.64,21.074C627.825,1337.07,625.73,1329.765,626.205,1319.905z M639.517,1336.783
		c10.548,12.334,21.157,26.712,33.812,38.98c12.563,12.179,27.185,22.234,41.488,33.688
		C686.801,1410.252,646.206,1369.966,639.517,1336.783z M459.368,1436.692c46.808,64.88,109.609,108.718,182.548,139.607
		c-17.052,0.806-33.178-3.156-48.899-8.994c-33.315-12.372-60.484-33.52-84.199-59.498c-19.32-21.163-35.418-44.62-49.254-69.667
		C459.356,1437.764,459.286,1437.312,459.368,1436.692z"/>
	<path d="M1290.476,740.639c0.623-2.135,1.496-4.544,0.95-6.573c-1.262-4.693-2.868-9.363-4.938-13.758
		c-10.1-21.443-25.648-38.629-43.119-54.226c-20.359-18.176-43.222-32.009-70.139-37.779c-9.484-2.033-19.429-2.067-29.185-2.595
		c-3.739-0.203-7.314,1.432-8.348,5.543c-1.074,4.272,1.97,6.621,5.099,8.624c2.205,1.411,4.505,2.678,6.792,3.956
		c12.728,7.11,25.555,14.049,38.179,21.339c19.332,11.164,38.124,23.198,54.238,38.8c7.325,7.092,13.775,15.089,20.621,22.676
		c-0.444,0.483-0.889,0.964-1.334,1.446c-4.727-0.272-9.452-0.752-14.18-0.774c-10.711-0.048-20.091,2.617-27.565,11.33
		c-10.761,12.545-22.534,24.219-33.404,36.677c-24.421,27.988-48.577,56.205-72.78,84.382c-6.927,8.064-13.752,16.223-20.342,24.561
		c-1.005,1.272-0.476,3.757-0.656,5.68c1.952-0.299,4.48,0.073,5.749-1.019c4.207-3.622,8.254-7.522,11.84-11.757
		c18.929-22.349,37.342-45.145,56.621-67.184c19.505-22.295,39.894-43.815,59.704-65.846c4.577-5.09,10.085-7.347,16.544-7.018
		c7.822,0.398,15.637,1.275,23.404,2.314c7.392,0.989,11.295-3.331,8.325-10.184c-1.937-4.467-4.184-9.123-7.435-12.637
		c-10.095-10.908-20.011-22.169-31.319-31.727c-22.006-18.6-47.561-31.88-72.759-45.575c-1.663-0.904-3.286-1.882-4.928-2.825
		c30.773,2.341,56.9,15.284,79.973,34.746C1258.909,690.488,1279.434,711.683,1290.476,740.639z"/>
	<path d="M838.582,905.891c15.813-24.688,31.915-49.191,47.83-73.813c2.125-3.288,3.982-6.779,5.616-10.336
		c0.475-1.033-0.258-2.622-0.437-3.956c-1.471,0.293-3.101,0.289-4.363,0.969c-1.065,0.573-1.745,1.908-2.523,2.959
		c-6.723,9.086-13.55,18.097-20.116,27.296c-18.087,25.34-35.825,50.915-50.213,78.616c-1.634,3.147-2.73,6.573-3.442,8.32
		c-0.277,6.045,2.038,8.465,5.844,9.724c2.922,0.968,5.021-0.362,4.319-3.194c-1.187-4.794,1.152-8.265,3.218-11.922
		C828.987,922.285,833.464,913.881,838.582,905.891z"/>
</g>
</svg>
