<?xml version="1.0" standalone="no"?>
<!DOCTYPE svg PUBLIC "-//W3C//DTD SVG 20010904//EN"
 "http://www.w3.org/TR/2001/REC-SVG-20010904/DTD/svg10.dtd">
<svg version="1.0" xmlns="http://www.w3.org/2000/svg"
 width="600.000000pt" height="600.000000pt" viewBox="176.5 177 272.000000 272.000000"
 preserveAspectRatio="xMidYMid meet">
<g transform="translate(0.000000,600.000000) scale(0.100000,-0.100000)"
fill="currentColor" stroke="none">
<path d="M2984 4210 c-151 -18 -308 -65 -449 -134 -402 -200 -668 -560 -741
-1006 -21 -124 -13 -367 15 -490 106 -463 447 -839 896 -989 136 -45 259 -64
420 -64 364 0 684 133 946 393 251 250 383 552 396 905 13 372 -113 703 -370
972 -252 263 -559 402 -925 417 -59 3 -143 1 -188 -4z m306 -33 c66 -5 234
-50 315 -84 44 -19 88 -35 97 -36 9 -1 15 -3 13 -6 -7 -6 46 -32 55 -26 4 2
18 -7 30 -20 13 -14 29 -25 37 -25 7 0 13 -4 13 -9 0 -5 8 -12 19 -16 10 -3
28 -13 39 -23 11 -9 35 -28 53 -42 17 -14 41 -34 53 -45 12 -11 25 -19 29 -17
4 1 3 -7 -3 -18 -6 -11 -9 -20 -8 -21 2 0 14 -2 27 -3 13 -2 33 -14 43 -27 10
-13 28 -35 39 -48 45 -54 137 -190 132 -195 -4 -3 -1 -6 5 -6 6 0 9 -7 5 -17
-4 -9 -2 -14 3 -10 5 3 16 -9 23 -26 7 -18 17 -40 22 -51 21 -38 68 -194 79
-261 6 -39 15 -85 20 -103 13 -52 9 -309 -7 -392 -8 -41 -15 -82 -17 -90 -1
-9 -4 -20 -8 -25 -6 -11 -20 -62 -24 -85 -4 -25 -48 -124 -59 -132 -5 -4 -6
-8 -1 -8 5 0 1 -10 -10 -22 -12 -13 -13 -18 -4 -13 8 5 2 -8 -13 -28 -15 -20
-25 -37 -22 -37 3 0 -3 -10 -15 -22 -11 -12 -20 -26 -20 -31 0 -9 -50 -78 -79
-108 -22 -22 -46 -52 -51 -63 -8 -14 -61 -66 -68 -66 -4 0 -23 -17 -42 -37
-44 -47 -94 -89 -98 -83 -2 3 -15 -6 -30 -18 -24 -21 -147 -97 -147 -91 0 1
-20 -8 -44 -20 -24 -13 -55 -25 -70 -28 -14 -2 -28 -8 -31 -13 -3 -4 -22 -11
-44 -14 -21 -4 -42 -9 -47 -12 -13 -8 -102 -27 -131 -28 -10 0 -18 -3 -18 -6
0 -13 -275 -17 -370 -5 -84 11 -90 12 -175 35 -44 12 -84 23 -90 24 -5 1 -26
9 -46 18 -20 9 -47 19 -60 23 -13 4 -36 16 -51 26 -14 11 -33 19 -42 19 -9 0
-16 5 -16 11 0 5 -4 8 -9 4 -5 -3 -12 -1 -16 5 -10 16 -119 84 -130 81 -5 -1
-7 1 -3 5 9 9 -33 40 -47 36 -5 -2 -7 -1 -3 3 4 4 -15 26 -40 48 -144 128
-261 297 -329 472 -69 180 -91 293 -93 475 -2 101 18 289 33 330 3 8 13 41 22
73 9 32 21 70 27 85 6 15 12 29 13 32 8 22 22 52 44 90 14 24 26 49 27 56 2
13 74 116 89 126 5 4 7 8 3 8 -12 0 28 46 118 137 45 45 79 85 75 89 -3 4 -1
4 5 1 6 -3 26 9 45 28 19 19 40 35 47 35 6 0 12 4 12 8 0 4 21 19 47 33 85 44
98 52 104 61 3 6 9 9 13 8 14 -3 75 24 70 32 -3 4 3 5 12 1 10 -4 15 -2 11 3
-3 5 6 11 21 12 14 1 36 9 48 17 13 8 32 15 43 15 11 0 47 7 80 16 78 20 94
23 161 30 30 3 56 7 57 8 2 2 196 -4 253 -7z"/>
<path d="M2945 4088 c-33 -5 -67 -12 -75 -15 -8 -3 -19 -5 -24 -4 -5 1 -16 -1
-25 -5 -19 -9 -18 -8 -61 -18 -40 -9 -225 -97 -285 -135 -89 -57 -153 -110
-222 -181 -80 -84 -163 -187 -142 -176 10 5 9 3 -1 -6 -25 -21 -85 -118 -74
-118 3 0 -2 -7 -10 -16 -9 -8 -14 -20 -11 -25 4 -5 1 -9 -4 -9 -6 0 -10 -3 -9
-7 1 -5 -6 -26 -16 -48 -10 -22 -19 -44 -20 -50 -1 -5 -12 -41 -24 -80 -31
-104 -42 -185 -42 -325 0 -108 4 -151 25 -265 2 -11 8 -34 13 -52 6 -17 8 -34
4 -37 -3 -3 2 -14 10 -23 9 -10 19 -29 22 -43 11 -39 68 -164 79 -171 5 -3 7
-9 5 -12 -4 -7 82 -136 106 -159 11 -10 17 -18 14 -18 -13 0 120 -134 167
-168 28 -20 55 -41 60 -47 21 -23 88 -68 81 -54 -4 8 0 5 8 -5 9 -11 16 -16
16 -10 0 5 4 4 8 -2 6 -10 73 -43 176 -89 21 -10 49 -18 62 -19 13 0 24 -4 24
-7 0 -3 6 -6 13 -7 6 0 39 -8 72 -17 114 -30 310 -34 460 -10 52 9 108 21 123
27 31 13 38 14 70 16 14 1 21 6 16 13 -4 7 -1 10 7 7 13 -4 98 28 109 41 3 3
35 22 73 41 37 19 67 38 67 43 0 4 5 5 10 2 6 -3 13 1 16 9 3 9 12 16 20 16 8
0 14 5 14 10 0 6 5 10 11 10 19 0 145 121 199 190 19 25 40 49 47 53 7 4 13
13 13 19 0 6 16 31 36 54 19 24 32 44 27 44 -4 0 -3 4 3 8 14 9 47 72 38 72
-4 0 -1 8 7 18 8 9 20 28 27 41 11 19 11 22 0 15 -7 -4 -5 1 4 12 9 10 19 30
21 44 3 14 10 37 16 53 46 119 66 387 41 546 -29 181 -96 343 -213 516 -84
125 -252 289 -324 316 -13 5 -23 13 -23 19 0 5 -6 10 -13 10 -7 0 -23 9 -35
20 -12 11 -28 20 -37 20 -8 0 -15 5 -15 12 0 6 -3 8 -7 5 -3 -4 -11 -3 -17 2
-23 20 -134 58 -251 87 -130 33 -329 42 -460 22z m420 -43 c237 -51 433 -155
598 -318 233 -229 358 -526 359 -852 0 -340 -125 -634 -373 -871 -99 -94 -176
-148 -296 -208 -408 -203 -885 -157 -1252 119 -222 167 -365 386 -442 675 -27
98 -37 343 -19 461 26 179 111 383 221 529 196 259 467 424 783 476 100 17
323 11 421 -11z m-1064 -2072 c13 -16 12 -17 -3 -4 -10 7 -18 15 -18 17 0 8 8
3 21 -13z"/>
<path d="M2920 3935 c-484 -96 -850 -514 -877 -1000 -23 -426 199 -820 577
-1023 154 -83 315 -122 505 -122 251 0 458 69 653 217 419 319 550 879 315
1348 -151 303 -435 517 -771 581 -91 17 -313 17 -402 -1z m430 -40 c41 -9 82
-18 91 -20 25 -5 143 -56 158 -69 12 -9 13 -8 7 4 -6 13 -5 12 6 0 7 -9 31
-24 53 -34 22 -11 44 -25 48 -32 4 -8 12 -14 17 -14 6 0 19 -8 29 -17 24 -22
39 -34 71 -56 13 -9 21 -17 17 -17 -5 0 13 -18 38 -40 25 -22 43 -40 39 -40
-4 0 5 -11 20 -25 38 -35 143 -209 138 -229 -2 -5 3 -16 11 -25 40 -47 83
-249 86 -401 4 -221 -83 -494 -198 -624 -14 -16 -19 -25 -11 -21 8 5 0 -7 -18
-26 -18 -19 -49 -52 -70 -75 -20 -22 -56 -53 -80 -68 -27 -17 -40 -31 -36 -39
4 -7 4 -9 -1 -5 -4 4 -28 -8 -53 -27 -25 -19 -50 -35 -57 -35 -6 0 -20 -9 -30
-20 -9 -10 -20 -18 -24 -18 -11 3 -81 -26 -81 -33 0 -4 -12 -9 -27 -12 -16 -3
-53 -12 -83 -22 -124 -37 -316 -51 -436 -32 -17 3 -67 15 -110 28 -44 12 -87
22 -97 21 -9 0 -15 3 -12 9 5 7 -15 12 -41 8 -4 0 -10 4 -13 9 -3 5 -35 24
-71 42 -182 91 -350 261 -448 453 -22 42 -39 77 -37 77 2 0 -3 17 -11 37 -9
20 -18 46 -20 57 -3 12 -7 30 -9 41 -3 11 -11 43 -18 70 -19 74 -21 296 -3
375 30 129 43 176 59 207 10 18 17 34 16 35 -1 2 9 23 22 48 12 25 22 48 21
53 -1 4 2 7 7 7 5 0 12 8 16 19 3 10 16 31 30 47 13 15 21 32 18 37 -3 6 -1 7
5 3 7 -4 12 -3 12 2 0 29 173 197 196 188 8 -3 11 2 9 14 -2 11 -1 19 3 19 20
-3 43 2 39 9 -3 4 2 14 11 22 9 8 17 14 17 12 0 -2 32 12 72 31 40 19 69 38
65 42 -4 3 -2 6 3 5 6 -1 12 -1 15 0 3 1 14 3 25 5 11 2 54 13 95 25 41 11
100 25 130 30 80 13 293 5 380 -15z"/>
<path d="M3007 3834 c-3 -3 -20 -7 -39 -9 -62 -6 -113 -17 -143 -30 -16 -7
-55 -23 -85 -35 -30 -12 -63 -30 -74 -39 -10 -9 -19 -14 -20 -12 -2 7 -76 -41
-76 -50 0 -5 -4 -8 -9 -7 -5 2 -37 -22 -71 -52 -81 -70 -90 -79 -90 -91 0 -6
-5 -7 -10 -4 -6 4 -9 3 -8 -2 3 -9 -28 -58 -58 -90 -30 -32 -98 -174 -123
-256 -31 -102 -36 -148 -35 -317 1 -151 2 -158 39 -265 39 -117 88 -219 99
-208 3 3 6 -1 6 -9 0 -9 7 -21 15 -28 9 -7 13 -15 11 -17 -11 -12 210 -232
241 -239 12 -4 20 -10 17 -15 -3 -5 2 -9 10 -9 9 0 16 -4 16 -10 0 -5 7 -10
16 -10 8 0 13 -4 10 -8 -3 -5 1 -9 9 -10 8 -1 22 -3 30 -4 8 -1 15 -5 15 -10
0 -4 9 -8 20 -8 11 0 20 -4 20 -9 0 -8 45 -25 52 -19 2 1 13 -4 26 -11 12 -7
35 -14 50 -16 15 -3 52 -12 82 -20 43 -13 88 -15 205 -12 136 4 203 15 275 44
8 4 17 7 20 8 58 20 148 67 227 118 24 15 47 27 52 27 5 0 15 10 24 23 8 12
40 47 70 78 31 31 53 60 49 64 -4 5 1 5 10 2 12 -4 15 -2 11 9 -3 7 0 14 6 14
6 0 11 5 11 11 0 6 14 29 31 50 17 22 32 45 33 52 1 7 9 23 19 37 9 13 17 28
17 33 0 4 7 24 16 45 10 20 18 42 20 47 41 161 43 174 43 300 0 80 -6 148 -18
205 -21 96 -66 221 -84 232 -7 4 -9 8 -4 8 7 0 -20 48 -33 60 -3 3 -18 26 -33
51 -29 51 -212 239 -232 239 -7 0 -18 7 -26 16 -7 9 -32 25 -56 36 -24 11 -43
25 -43 30 0 6 -6 8 -14 5 -8 -3 -19 0 -25 7 -6 7 -39 21 -73 31 -35 9 -75 22
-89 27 -14 5 -48 12 -75 15 -74 8 -271 13 -277 7z m368 -59 c257 -74 452 -229
574 -457 80 -147 113 -278 113 -453 1 -254 -96 -483 -283 -666 -167 -165 -366
-252 -604 -265 -436 -24 -821 248 -952 673 -25 81 -27 102 -27 263 -1 166 1
180 28 265 65 206 173 361 338 485 123 93 232 141 394 175 108 23 306 13 419
-20z"/>
<path d="M3075 3512 c-6 -5 -48 -25 -95 -45 -47 -20 -135 -58 -197 -85 l-111
-49 448 -448 c247 -247 451 -447 453 -445 2 3 36 86 77 185 40 99 78 192 86
206 12 25 7 31 -319 357 -201 201 -336 329 -342 324z m55 -76 c14 -16 25 -35
25 -40 0 -6 5 -11 10 -11 6 0 21 -8 35 -18 13 -9 20 -17 15 -17 -6 0 3 -9 18
-19 16 -10 29 -22 30 -26 2 -9 48 -54 177 -175 46 -44 80 -80 76 -80 -5 0 3
-9 18 -21 14 -11 24 -25 20 -30 -3 -5 -2 -8 3 -7 5 2 21 -7 37 -19 16 -13 25
-23 20 -23 -5 0 4 -9 19 -19 16 -10 29 -22 30 -27 0 -5 11 -17 23 -27 l23 -18
-25 -67 c-14 -37 -26 -74 -28 -82 -8 -33 -94 -215 -101 -214 -10 1 -383 374
-376 374 4 0 0 4 -8 9 -21 13 -441 433 -441 440 1 7 72 41 87 41 5 0 20 9 33
20 13 12 30 18 37 16 7 -3 13 -1 13 5 0 6 4 8 9 4 5 -3 12 -1 16 5 3 5 24 14
45 20 22 6 40 15 40 20 0 6 13 10 29 10 17 0 33 5 36 10 8 13 23 4 55 -34z"/>
<path d="M2463 3182 l-111 -114 477 -478 478 -478 114 114 114 114 -475 478
c-261 264 -477 479 -480 479 -3 0 -55 -52 -117 -115z m273 -81 c80 -82 150
-155 155 -162 5 -8 9 -11 9 -6 0 8 348 -341 382 -383 11 -14 22 -24 24 -23 2
2 39 -33 82 -76 42 -44 73 -77 68 -74 -5 4 -6 1 -2 -5 4 -7 14 -12 22 -12 27
0 14 -18 -76 -109 -88 -88 -110 -100 -124 -65 -4 9 -11 12 -18 8 -8 -5 -7 0 2
11 8 10 10 16 3 12 -7 -4 -150 132 -371 352 -198 198 -363 357 -367 353 -5 -4
-5 -2 -2 4 4 7 -23 40 -63 76 l-69 64 89 92 c50 51 94 92 100 92 5 0 75 -67
156 -149z"/>
<path d="M2653 2985 c-47 -47 -59 -65 -51 -73 7 -7 8 -12 4 -12 -4 0 47 -54
113 -121 67 -66 119 -125 115 -130 -3 -5 -2 -8 3 -7 14 4 64 -34 60 -46 -3 -7
8 -11 28 -11 25 0 42 10 72 40 42 44 73 85 73 97 0 5 -18 25 -40 47 -22 21
-36 42 -32 46 4 5 2 5 -4 2 -7 -4 -29 12 -50 36 -21 23 -42 41 -47 39 -5 -1
-6 2 -2 8 3 5 -1 13 -9 16 -9 3 -13 10 -10 15 3 5 1 8 -4 7 -5 -2 -21 8 -34
22 -53 55 -85 81 -104 84 -13 2 -39 -17 -81 -59z m339 -327 l-56 -58 -157 158
-158 157 56 57 56 57 158 -157 158 -157 -57 -57z"/>
<path d="M2750 2876 c0 -2 8 -10 18 -17 15 -13 16 -12 3 4 -13 16 -21 21 -21
13z"/>
<path d="M3407 3259 c7 -7 15 -10 18 -7 3 3 -2 9 -12 12 -14 6 -15 5 -6 -5z"/>
<path d="M2886 3052 c-3 -5 1 -9 9 -9 8 0 12 4 9 9 -3 4 -7 8 -9 8 -2 0 -6 -4
-9 -8z"/>
<path d="M3286 2652 c-3 -5 1 -9 9 -9 8 0 12 4 9 9 -3 4 -7 8 -9 8 -2 0 -6 -4
-9 -8z"/>
<path d="M2366 2388 c3 -5 10 -6 15 -3 13 9 11 12 -6 12 -8 0 -12 -4 -9 -9z"/>
<path d="M3165 2170 c-3 -6 1 -7 9 -4 18 7 21 14 7 14 -6 0 -13 -4 -16 -10z"/>
<path d="M3489 2053 c-13 -16 -12 -17 4 -4 16 13 21 21 13 21 -2 0 -10 -8 -17
-17z"/>
<path d="M2056 3307 c3 -10 9 -15 12 -12 3 3 0 11 -7 18 -10 9 -11 8 -5 -6z"/>
<path d="M2163 2255 c0 -8 4 -12 9 -9 5 3 6 10 3 15 -9 13 -12 11 -12 -6z"/>
<path d="M3880 2026 c0 -2 7 -7 16 -10 8 -3 12 -2 9 4 -6 10 -25 14 -25 6z"/>
<path d="M2483 1916 c-10 -11 -9 -15 4 -20 9 -4 18 -4 21 -1 3 3 0 5 -6 5 -6
0 -9 7 -6 15 7 18 3 19 -13 1z"/>
<path d="M2181 3896 c-10 -11 -9 -14 1 -12 14 2 23 15 15 22 -2 2 -10 -2 -16
-10z"/>
<path d="M2014 3738 l-19 -23 23 19 c21 18 27 26 19 26 -2 0 -12 -10 -23 -22z"/>
<path d="M2085 1941 c-3 -5 -2 -12 3 -15 5 -3 9 1 9 9 0 17 -3 19 -12 6z"/>
</g>
</svg>
