<svg version="1.1" id="Layer_1" xmlns="http://www.w3.org/2000/svg" xmlns:xlink="http://www.w3.org/1999/xlink" x="0px" y="0px"
	 width="100%" viewBox="290 290 484 484" enable-background="new 0 0 1024 1024" xml:space="preserve">
<path fill="#currentColor" opacity="1.000000" stroke="none" 
	d="
M629.640503,744.734497 
	C548.031494,779.285889 470.480469,772.116821 398.592621,721.099548 
	C347.395447,684.765991 316.575623,634.123474 306.867706,571.897705 
	C295.551727,499.364380 315.098267,435.185669 363.908295,380.545776 
	C400.023315,340.117188 445.550232,316.061707 499.207794,307.530273 
	C592.269043,292.733734 684.916077,336.644897 732.886597,418.222595 
	C752.178223,451.029419 763.026917,486.313202 764.363159,524.353699 
	C766.887756,596.222412 741.195679,656.543945 688.924622,705.550781 
	C671.563538,721.827576 651.680969,734.662231 629.640503,744.734497 
M689.496582,667.011475 
	C731.788208,616.176392 747.340332,557.986694 734.127014,493.370514 
	C716.374084,406.554657 644.038391,340.738708 554.078308,332.124451 
	C518.814148,328.747681 484.893250,334.024628 452.622803,348.275879 
	C373.113434,383.388733 322.900970,466.178192 331.111267,553.154663 
	C333.279907,576.128479 338.893707,598.078979 348.242798,619.028076 
	C381.808014,694.239624 462.551758,748.214661 555.847229,738.020142 
	C609.571838,732.149475 653.556946,707.902771 689.496582,667.011475 
z"/>
<path fill="#fff7ec" opacity="1.000000" stroke="none" 
	d="
M578.204590,354.678528 
	C651.517822,372.829132 707.335693,432.574463 717.868835,506.466461 
	C727.487915,573.946350 705.983704,630.858276 654.786133,676.139221 
	C626.199585,701.422241 592.513550,716.173706 554.778503,719.870605 
	C493.423584,725.881470 440.844635,706.292419 398.319641,661.432800 
	C370.620575,632.213013 354.546722,597.105469 349.925842,557.171204 
	C344.038483,506.291656 356.866516,460.244354 388.750580,420.083771 
	C419.398834,381.479736 459.347778,358.240204 508.313751,351.297668 
	C531.611145,347.994476 554.848938,349.061462 578.204590,354.678528 
M611.575500,675.085510 
	C623.178040,668.412415 634.180054,660.827881 643.682312,651.407654 
	C687.555481,607.913330 703.554565,555.899292 688.868958,495.688049 
	C666.960144,405.861328 569.864014,351.118225 478.760193,385.760193 
	C417.927795,408.891479 382.839325,454.868256 375.734619,519.691101 
	C370.603699,566.505188 384.752808,608.363037 417.016113,643.324097 
	C445.390076,674.070679 480.752014,691.109924 522.325256,694.507446 
	C553.616211,697.064636 583.253540,690.416138 611.575500,675.085510 
z"/>
<path fill="#4C6492" opacity="1.000000" stroke="none" 
	d="
M518.493774,518.505249 
	C497.843048,497.726593 477.440765,477.199585 457.168427,456.803314 
	C457.456909,454.841736 458.934692,454.582458 460.094543,454.070892 
	C481.726990,444.529541 503.389587,435.056305 524.992676,425.449127 
	C527.542847,424.315063 529.230469,424.640381 531.169128,426.583466 
	C566.816284,462.311768 602.507446,497.996124 638.216736,533.662354 
	C640.021423,535.464905 640.981628,537.164734 639.883911,539.824036 
	C630.610107,562.291443 621.426636,584.796021 612.190186,607.278809 
	C611.887573,608.015503 611.308899,608.638794 610.191895,610.317383 
	C579.505005,579.593323 549.123657,549.175049 518.493774,518.505249 
z"/>
<path fill="#000000" opacity="1.00000" stroke="none" 
	d="
M481.517700,581.481689 
	C455.754425,555.846863 430.264893,530.438049 404.689972,505.115479 
	C402.066406,502.517761 401.474213,500.717987 404.460968,497.810699 
	C415.683289,486.886871 426.722565,475.772491 437.700104,464.601440 
	C440.368164,461.886414 442.097412,461.713867 444.967926,464.604370 
	C482.070160,501.964600 519.295532,539.202637 556.509583,576.451721 
	C571.577148,591.533386 586.641357,606.619141 601.834961,621.573181 
	C604.491699,624.188049 604.503540,626.061340 601.935913,628.607544 
	C590.696472,639.752869 579.503296,650.946106 568.406555,662.233276 
	C565.691650,664.994751 563.882019,664.319946 561.424255,661.838623 
	C534.924316,635.084595 508.333282,608.420837 481.517700,581.481689 
M518.071045,559.989014 
	C501.262543,543.246277 484.454010,526.503479 467.189911,509.306976 
	C461.815125,514.811035 456.864624,519.949829 451.829163,525.004028 
	C449.727295,527.113708 451.084595,528.549500 452.555939,530.018982 
	C468.099274,545.541931 483.677734,561.029724 499.168365,576.605042 
	C501.312103,578.760559 502.899628,578.735840 504.956970,576.584778 
	C508.982086,572.376160 513.189697,568.342590 517.260193,564.176392 
	C518.222900,563.191040 519.845276,562.262024 518.071045,559.989014 
z"/>
</svg>
