<svg width="139" height="87" viewBox="0 0 139 87" fill="none" xmlns="http://www.w3.org/2000/svg">
<path d="M106.015 84.7617C97.3857 84.7617 64.6123 84.7617 54.5663 84.7617C48.9794 84.7617 43.5602 83.6677 38.4591 81.5101C33.5316 79.4259 29.1059 76.442 25.305 72.6413C21.5042 68.8405 18.5202 64.415 16.4359 59.4875C14.2783 54.3866 13.1843 48.9675 13.1843 43.3808C13.1843 37.7941 14.2783 32.375 16.4359 27.2741C18.5202 22.3467 21.5042 17.9211 25.305 14.1204C29.1059 10.3196 33.5316 7.33572 38.4591 5.25152C43.5602 3.09398 48.9794 2 54.5663 2C62.6889 2 70.5513 4.35145 77.3035 8.80014C83.8875 13.138 89.0761 19.2191 92.3084 26.386L92.7654 27.3993L93.7815 26.9485C97.6413 25.2362 101.757 24.3679 106.015 24.3679C114.081 24.3679 121.664 27.5091 127.368 33.2129C133.071 38.9165 136.212 46.4998 136.212 54.5658C136.212 62.6316 133.071 70.2145 127.368 75.9176C121.664 81.6208 114.081 84.7617 106.015 84.7617Z" fill="#EAEFFB" stroke="#707070" stroke-width="4"/>
<path d="M74.58 84.6021C67.833 84.6021 42.209 84.6021 34.3545 84.6021C29.9864 84.6021 25.7494 83.7467 21.7611 82.0599C17.9085 80.4304 14.4483 78.0974 11.4766 75.1258C8.50488 72.1541 6.17185 68.694 4.54227 64.8415C2.85535 60.8533 2 56.6164 2 52.2484C2 47.8805 2.85535 43.6435 4.54227 39.6554C6.17185 35.8029 8.50488 32.3427 11.4766 29.3711C14.4483 26.3995 17.9085 24.0665 21.7611 22.437C25.7494 20.7501 29.9864 19.8948 34.3545 19.8948C40.7052 19.8948 46.8524 21.7333 52.1317 25.2115C57.2794 28.603 61.3361 33.3575 63.8632 38.961L64.2206 39.7533L65.015 39.4008C68.0328 38.062 71.2509 37.3832 74.58 37.3832C80.8863 37.3832 86.8152 39.8391 91.2744 44.2986C95.7335 48.758 98.1893 54.687 98.1893 60.9934C98.1893 67.2997 95.7335 73.2284 91.2744 77.6874C86.8153 82.1464 80.8864 84.6021 74.58 84.6021Z" fill="#EAF1FB" stroke="#707070" stroke-width="4"/>
</svg>
